<?xml version="1.0" standalone="no"?>
<!DOCTYPE svg PUBLIC "-//W3C//DTD SVG 1.1//EN" "http://www.w3.org/Graphics/SVG/1.1/DTD/svg11.dtd" >
<svg>
<metadata>
Created by FontForge 20090914 at Wed Jul 17 18:59:12 2013
 By www-data
Copyright (c) 1991 Adobe Systems Incorporated.  All Rights Reserved.ITC Avant Garde Gothic is a registered trademark of International Typeface Corporation.
</metadata>
<defs>
<font id="AvantGarde-Medium" horiz-adv-x="555" >
  <font-face 
    font-family="ITC Avant Garde Gothic"
    font-weight="500"
    font-stretch="normal"
    units-per-em="1000"
    panose-1="2 0 6 3 0 0 0 0 0 0"
    ascent="800"
    descent="-200"
    x-height="554"
    cap-height="740"
    bbox="-98 -257.001 1175 982.001"
    underline-thickness="50"
    underline-position="-100"
    unicode-range="U+0020-U+FFFD"
  />
<missing-glyph horiz-adv-x="277" 
 />
    <glyph glyph-name=".notdef" unicode="&#xfffd;" horiz-adv-x="277" 
 />
    <glyph glyph-name="space" unicode=" " horiz-adv-x="277" 
 />
    <glyph glyph-name="exclam" unicode="!" horiz-adv-x="277" 
d="M191 122v-122h-104v122h104zM191 740v-558h-104v558h104z" />
    <glyph glyph-name="quotedbl" unicode="&#x22;" horiz-adv-x="325" 
d="M110 444h-71l-19 296h110zM286 444h-71l-19 296h110z" />
    <glyph glyph-name="numbersign" unicode="#" 
d="M494 288l-2 -84h-91l-29 -204h-88l28 204h-102l-29 -204h-88l28 204h-91l2 84h101l17 124h-90l2 84h100l28 204h89l-28 -204h102l28 204h89l-28 -204h82l-2 -84h-92l-17 -124h81zM341 412h-102l-17 -124h102z" />
    <glyph glyph-name="dollar" unicode="$" 
d="M234 823l95 0.00390625v-112c42.667 -5.33301 77.5 -22.833 104.5 -52.5s41.5 -69.834 43.5 -120.501h-104c-4.66699 56 -34 84 -88 84c-26.667 0 -47.334 -9.5 -62.001 -28.5s-22 -40.833 -22 -65.5c0 -30 9 -51 27 -63s48.667 -23.667 92 -35
c110.667 -26.667 166.334 -92.667 167.001 -198c0 -19.333 -2.33301 -38.833 -7 -58.5s-12.5 -39.834 -23.5 -60.501s-27.5 -38.667 -49.5 -54s-48 -25.333 -78 -30v-111h-95v111c-104.667 26.667 -160 93.667 -166 201h104c3.33301 -40 15.833 -68.667 37.5 -86
s46.167 -26 73.5 -26c32.667 0 57.5 10.833 74.5 32.5s25.5 48.834 25.5 81.501c0 16 -3.16699 30.333 -9.5 43s-13.5 22.667 -21.5 30s-18.833 14.166 -32.5 20.499s-24.5 10.666 -32.5 12.999s-18.667 5.16602 -32 8.49902c-44.667 14 -76.667 28.333 -96 43
c-41.333 32 -62 78 -62 138c0 16.667 2.16699 33.5 6.5 50.5s11.333 34.5 21 52.5s24 34.167 43 48.5s41.167 24.833 66.5 31.5v112z" />
    <glyph glyph-name="percent" unicode="%" horiz-adv-x="837" 
d="M512 166c0 -25.333 8.83301 -47.166 26.5 -65.499s39.167 -27.5 64.5 -27.5s46.833 9.16699 64.5 27.5s26.5 40.166 26.5 65.499s-8.83301 47.166 -26.5 65.499s-39.167 27.5 -64.5 27.5s-46.833 -9.16699 -64.5 -27.5s-26.5 -40.166 -26.5 -65.499zM422 166
c0 49.333 17.833 91.5 53.5 126.5s78.167 52.5 127.5 52.5s91.833 -17.5 127.5 -52.5s53.5 -77.167 53.5 -126.5s-17.833 -91.5 -53.5 -126.5s-78.167 -52.5 -127.5 -52.5s-91.833 17.5 -127.5 52.5s-53.5 77.167 -53.5 126.5zM52 572c0 49.333 17.833 91.5 53.5 126.5
s78.167 52.5 127.5 52.5s91.833 -17.5 127.5 -52.5s53.5 -77.167 53.5 -126.5s-17.833 -91.5 -53.5 -126.5s-78.167 -52.5 -127.5 -52.5s-91.833 17.5 -127.5 52.5s-53.5 77.167 -53.5 126.5zM142 572c0 -25.333 8.83301 -47.166 26.5 -65.499s39.167 -27.5 64.5 -27.5
s46.833 9.16699 64.5 27.5s26.5 40.166 26.5 65.499s-8.83301 47.166 -26.5 65.499s-39.167 27.5 -64.5 27.5s-46.833 -9.16699 -64.5 -27.5s-26.5 -40.166 -26.5 -65.499zM660 740l-424 -740h-67l424 740h67z" />
    <glyph glyph-name="ampersand" unicode="&#x26;" horiz-adv-x="684" 
d="M648 455l-121 -244.001l149 -152l-72 -73l-129 130c-58 -86.667 -129.667 -130 -215 -130c-63.333 0 -116.833 21.333 -160.5 64s-65.5 95 -65.5 157c0 44.667 12 85.834 36 123.501s59.333 66.834 106 87.501c-23.333 24 -41 46.667 -53 68s-18 47.666 -18 78.999
c0 54 18.167 99 54.5 135s80.5 54 132.5 54c50 0 93.167 -17.833 129.5 -53.5s54.5 -80.5 54.5 -134.5c0 -78.667 -41.333 -138 -124 -178l98 -96l81 163h117zM276 459.999c32.667 17.333 56.168 33.5 70.501 48.5s21.5 35.167 21.5 60.5c0 28 -8.16699 49.333 -24.5 64
s-33.833 22 -52.5 22c-20.667 0 -38.834 -8 -54.501 -24s-23.5 -38 -23.5 -66c0 -31.333 21 -66.333 63 -105zM403.001 190.999l-156 154c-70 -24 -105 -70 -105 -138c0 -33.333 10.667 -62 32 -86s50 -36 86 -36c57.333 0 105 35.333 143 106z" />
    <glyph glyph-name="quotesingle" unicode="'" horiz-adv-x="218" 
d="M144 444h-70l-20 296h110z" />
    <glyph glyph-name="parenleft" unicode="(" horiz-adv-x="407" 
d="M357 -127v-129.999c-34 17.333 -67.833 41 -101.5 71s-66 66 -97 108s-56 92 -75 150s-28.5 118.333 -28.5 181c0 105.333 27.833 204.166 83.5 296.499s126.5 160.833 212.5 205.5v-129c-26.667 -24 -47.834 -44.333 -63.501 -61s-34.667 -40.667 -57 -72
s-39.166 -67 -50.499 -107s-17 -84 -17 -132c0 -52 6.5 -99.833 19.5 -143.5s31.5 -81.5 55.5 -113.5s43.833 -55.833 59.5 -71.5s35.5 -33.167 59.5 -52.5z" />
    <glyph glyph-name="parenright" unicode=")" horiz-adv-x="407" 
d="M50 625l-0.000976562 130c34.667 -18 69 -42.167 103 -72.5s66.333 -66.5 97 -108.5s55.334 -91.667 74.001 -149s28 -117.333 28 -180c0 -105.333 -27.833 -204.166 -83.5 -296.499s-126.5 -160.833 -212.5 -205.5v129l50 46c12 11.333 28 29.5 48 54.5
s35.5 49.167 46.5 72.5s21 52.666 30 87.999s13.5 72.333 13.5 111c0 42 -5 82 -15 120s-21.167 69.333 -33.5 94s-29 49.5 -50 74.5s-37.5 42.833 -49.5 53.5z" />
    <glyph glyph-name="asterisk" unicode="*" horiz-adv-x="573" 
d="M254 596l-1 144h70l-3 -144l136 46l22 -66l-138 -43l87 -115l-57 -41l-83 118l-83 -118l-57 41l87 115l-138 43l22 66z" />
    <glyph glyph-name="plus" unicode="+" horiz-adv-x="600" 
d="M248 305v201h104v-201h200v-104h-200v-201h-104v201h-200v104h200z" />
    <glyph glyph-name="comma" unicode="," horiz-adv-x="277" 
d="M191 122v-111.001c0 -78 -34.667 -124 -104 -138v62c7.33301 2.66699 13 5.16699 17 7.5s8.33301 7.83301 13 16.5s7 19.334 7 32.001v9h-37v122h104z" />
    <glyph glyph-name="hyphen" unicode="-" horiz-adv-x="280" 
d="M280 237h-280v104h280v-104z" />
    <glyph glyph-name="period" unicode="." horiz-adv-x="277" 
d="M191 0h-104v122h104v-122z" />
    <glyph glyph-name="slash" unicode="/" horiz-adv-x="499" 
d="M155 -100h-114l288 840h114z" />
    <glyph glyph-name="zero" unicode="0" 
d="M517 511l-0.00195312 -273c0 -34 -3.5 -64 -10.5 -90s-21.5 -51.667 -43.5 -77c-50.667 -56.667 -113 -85 -187 -85c-75.333 0 -137.666 30 -186.999 90c-34 41.333 -51 98 -51 170v258c0 44.667 8 84 24 118s36.667 60.167 62 78.5s51.333 32 78 41s52.667 13.5 78 13.5
c60.667 0 115.334 -21.833 164.001 -65.5s73 -103.167 73 -178.5zM412.998 238l0.000976562 272.999c0 30.667 -5 56.667 -15 78s-22.667 36.666 -38 45.999s-29.5 15.833 -42.5 19.5s-25.833 5.5 -38.5 5.5c-14.667 0 -29.334 -2.33301 -44.001 -7
s-29.334 -12.167 -44.001 -22.5s-26.5 -25.833 -35.5 -46.5s-13.5 -45 -13.5 -73v-273c0 -28.667 4.33301 -53.667 13 -75s18.667 -37 30 -47s24.5 -17.833 39.5 -23.5s26.333 -9 34 -10s14.834 -1.5 21.501 -1.5c38.667 0 72 15.667 100 47c10 12 17.667 24.833 23 38.5
s8.33301 24.834 9 33.501s1 21.334 1 38.001z" />
    <glyph glyph-name="one" unicode="1" 
d="M361 740v-740h-104v645h-109v95h213z" />
    <glyph glyph-name="two" unicode="2" 
d="M504 0l-463 -0.000976562v87l291 296c44.667 44.667 67 89.667 67 135c0 36.667 -11.5 69.334 -34.5 98.001s-53.5 43 -91.5 43c-34 0 -64.5 -12.833 -91.5 -38.5s-40.5 -64.167 -40.5 -115.5v-19h-104c-0.666992 41.333 4.66602 78.333 15.999 111s25.5 58.5 42.5 77.5
s36.5 34.833 58.5 47.5s42.333 21.167 61 25.5s36.667 6.5 54 6.5c68.667 0 124.834 -23.833 168.501 -71.5s65.5 -103.5 65.5 -167.5c0 -44 -9 -81.5 -27 -112.5s-43.333 -63.167 -76 -96.5l-206 -211h310v-95z" />
    <glyph glyph-name="three" unicode="3" 
d="M22 218h103.997c1.33301 -24.667 6.5 -46 15.5 -64s19 -31.5 30 -40.5s23.5 -16.167 37.5 -21.5s25 -8.5 33 -9.5s15.333 -1.5 22 -1.5c39.333 0 71.333 14.167 96 42.5s37 59.5 37 93.5c0 39.333 -13.5 71.333 -40.5 96s-59.5 37 -97.5 37h-38v104h36
c20 0 37.5 3.66699 52.5 11s25.833 15.333 32.5 24s12 18.834 16 30.501s6.16699 20 6.5 25s0.5 9.16699 0.5 12.5c0 28 -9.33301 52 -28 72s-42.334 30 -71.001 30c-6 0 -11.833 -0.333008 -17.5 -1s-13.167 -3 -22.5 -7s-17.666 -9.5 -24.999 -16.5
s-14.333 -17.333 -21 -31s-11 -29.834 -13 -48.501h-104c2 32 8.83301 60.333 20.5 85s25.334 44 41.001 58s33.167 25.333 52.5 34s36.333 14.5 51 17.5s28.334 4.5 41.001 4.5c58 0 105.833 -19.333 143.5 -58s56.5 -87.667 56.5 -147
c0 -24.667 -3.66699 -46.834 -11 -66.501s-15 -34.167 -23 -43.5s-19.333 -20.666 -34 -33.999c66.667 -42.667 100 -104 100 -184c0 -72 -23.167 -129.167 -69.5 -171.5s-103.166 -63.5 -170.499 -63.5c-64 0 -119.667 22 -167 66s-71.333 99.333 -72 166z" />
    <glyph glyph-name="four" unicode="4" 
d="M454 740v-529h78v-95h-78v-116h-104v116h-338v101l338 523h104zM132 211h218v356h-2z" />
    <glyph glyph-name="five" unicode="5" 
d="M121 740l337.998 0.000976562v-95h-252l-28 -164c30 20 64.333 30 103 30c73.333 0 133 -25 179 -75s69 -111.667 69 -185c0 -71.333 -23.5 -133.333 -70.5 -186s-107.833 -79 -182.5 -79c-69.333 0 -126.833 22.167 -172.5 66.5s-72.167 101.5 -79.5 171.5h104
c8.66699 -42.667 25.834 -77.167 51.501 -103.5s58.167 -39.5 97.5 -39.5s73.833 15.667 103.5 47s44.5 69.666 44.5 114.999c0 46.667 -13.167 87.167 -39.5 121.5s-61.166 51.5 -104.499 51.5c-56.667 0 -101 -25.667 -133 -77l-90 21z" />
    <glyph glyph-name="six" unicode="6" 
d="M289 740h123l-157 -243c18.667 3.33301 33.334 5 44.001 5c68.667 0 125.5 -24.333 170.5 -73s67.5 -107.667 67.5 -177c0 -74 -24.333 -136.833 -73 -188.5s-109.334 -77.5 -182.001 -77.5c-42 0 -80.167 8.5 -114.5 25.5s-61.5 38.667 -81.5 65
s-35.167 53.5 -45.5 81.5s-15.5 54.667 -15.5 80c0 56.667 18.667 115.667 56 177zM129 248c0 -46.667 14.5 -86.168 43.5 -118.501s65.5 -48.5 109.5 -48.5c42.667 0 78.5 16.167 107.5 48.5s43.5 69.5 43.5 111.5c0 46.667 -14.333 86 -43 118s-64 48 -106 48
c-42.667 0 -79.167 -15.667 -109.5 -47s-45.5 -68.666 -45.5 -111.999z" />
    <glyph glyph-name="seven" unicode="7" 
d="M71 740h429v-95l-271 -645h-116l279 645h-321v95z" />
    <glyph glyph-name="eight" unicode="8" 
d="M412 408c66 -44 98.998 -106.331 98.998 -186.998c0 -65.333 -23.167 -120.833 -69.5 -166.5s-101.166 -68.5 -164.499 -68.5c-61.333 0 -115.666 21.667 -162.999 65s-71 99 -71 167c0 78.667 32.333 142 97 190c-12.667 12.667 -22.334 23.167 -29.001 31.5
s-14 22.666 -22 42.999s-12 42.833 -12 67.5c0 58 20.167 106.5 60.5 145.5s87.5 58.5 141.5 58.5c54.667 0 101.5 -20 140.5 -60s58.5 -87.667 58.5 -143c0 -26.667 -4.16699 -50.334 -12.5 -71.001s-16.166 -35 -23.499 -43s-17.333 -17.667 -30 -29zM373.998 561.002
c0 24 -8.66699 46.3311 -26 66.998s-40.666 31 -69.999 31c-28 0 -51.167 -10.167 -69.5 -30.5s-27.5 -44.166 -27.5 -71.499c0 -25.333 8.66699 -48.5 26 -69.5s40.666 -31.5 69.999 -31.5c30.667 0 54.5 10.333 71.5 31s25.5 45.334 25.5 74.001zM406.998 212
c0 41.333 -13.332 74.668 -39.999 100.001s-56.667 38 -90 38c-37.333 0 -68.333 -13.833 -93 -41.5s-37 -59.5 -37 -95.5c0 -36.667 12.667 -67.834 38 -93.501s55.666 -38.5 90.999 -38.5c37.333 0 68.5 13.5 93.5 40.5s37.5 57.167 37.5 90.5z" />
    <glyph glyph-name="nine" unicode="9" 
d="M266 0l-123 0.00195312l157 243c-22.667 -2.66699 -37 -4 -43 -4c-64 0 -119.833 23.333 -167.5 70s-71.5 106.667 -71.5 180c0 72.667 24.167 135 72.5 187s108.833 78 181.5 78c42.667 0 81.167 -8.5 115.5 -25.5s61.333 -38.833 81 -65.5s34.667 -53.834 45 -81.501
s15.5 -53.834 15.5 -78.501c0 -60 -19 -119.333 -57 -178zM425 492.002c0 46.667 -14.499 86.168 -43.499 118.501s-65.167 48.5 -108.5 48.5s-79.333 -16 -108 -48s-43 -69.333 -43 -112c0 -44.667 14.5 -83.334 43.5 -116.001s64.5 -49 106.5 -49
c45.333 0 82.166 16.667 110.499 50s42.5 69.333 42.5 108z" />
    <glyph glyph-name="colon" unicode=":" horiz-adv-x="277" 
d="M191 0h-104v122h104v-122zM191 433h-104v122h104v-122z" />
    <glyph glyph-name="semicolon" unicode=";" horiz-adv-x="277" 
d="M191 122v-111.001c0 -78 -34.667 -124 -104 -138v62c7.33301 2.66699 13 5.16699 17 7.5s8.33301 7.83301 13 16.5s7 19.334 7 32.001v9h-37v122h104zM191 432.999h-104v122h104v-122z" />
    <glyph glyph-name="less" unicode="&#x3c;" horiz-adv-x="600" 
d="M554 94v-102l-508 218v86l508 218v-102l-373 -159z" />
    <glyph glyph-name="equal" unicode="=" horiz-adv-x="600" 
d="M552 414v-104h-504v104h504zM552 196v-104h-504v104h504z" />
    <glyph glyph-name="greater" unicode="&#x3e;" horiz-adv-x="600" 
d="M46 94l373 159l-373 159v102l508 -218v-86l-508 -218v102z" />
    <glyph glyph-name="question" unicode="?" horiz-adv-x="518" 
d="M303 190l-103.999 -0.00195312c0.666992 35.333 7.33398 68.666 20.001 99.999s25.167 54.833 37.5 70.5s27.833 32.834 46.5 51.501c30 30.667 49.333 52.5 58 65.5s13 29.167 13 48.5c0 34.667 -11.5 63.834 -34.5 87.501s-50.833 35.5 -83.5 35.5
c-41.333 0 -74.333 -18 -99 -54c-10.667 -14.667 -17.667 -36.667 -21 -66h-104c2 40 10.667 75.333 26 106s34.666 54.167 57.999 70.5s46.833 28.5 70.5 36.5s47.167 12 70.5 12c62.667 0 115.167 -22.667 157.5 -68s63.5 -97.333 63.5 -156c0 -29.333 -5 -56 -15 -80
s-19.833 -41.333 -29.5 -52s-24.5 -25 -44.5 -43c-22.667 -20 -40.334 -40.667 -53.001 -62s-20.5 -38.166 -23.5 -50.499s-6.16699 -29.833 -9.5 -52.5zM303.001 121.998v-122h-104v122h104z" />
    <glyph glyph-name="at" unicode="@" horiz-adv-x="760" 
d="M513 548l73.9971 -0.00390625l-42 -231c-5.33301 -33.333 -8 -53 -8 -59c2 -17.333 10.333 -26 25 -26c32 0 57 16.833 75 50.5s28.667 80.5 32 140.5c0 79.333 -25.167 141.5 -75.5 186.5s-115.5 67.5 -195.5 67.5c-92 0 -166.167 -29.667 -222.5 -89
s-84.5 -132.333 -84.5 -219c0 -27.333 2.66699 -54 8 -80s15.5 -53 30.5 -81s33.833 -52.5 56.5 -73.5s53.334 -38.167 92.001 -51.5s82.334 -20 131.001 -20c54.667 0 102.5 6 143.5 18s72.5 26 94.5 42l39 -61c-90.667 -50 -183 -75 -277 -75
c-69.333 0 -130.5 11.333 -183.5 34s-94.5 52.834 -124.5 90.501s-52.5 78.334 -67.5 122.001s-22.5 89.167 -22.5 136.5c4 112.667 41.667 203.667 113 273s162.333 106 273 110c102.667 0 187 -29.667 253 -89s99 -139.333 99 -240c0 -73.333 -18.5 -136.333 -55.5 -189
s-82.167 -79 -135.5 -79c-17.333 0 -34.833 4.83301 -52.5 14.5s-28.5 24.834 -32.5 45.501h-2c-29.333 -40 -73.666 -60 -132.999 -60c-44.667 0 -81.834 16.5 -111.501 49.5s-44.5 76.5 -44.5 130.5c0 60 18.333 112.667 55 158s83.334 68 140.001 68
c11.333 0 22 -0.833008 32 -2.5s18.5 -3.66699 25.5 -6s13.833 -5.66602 20.5 -9.99902s12 -8 16 -11s8 -7 12 -12s6.83301 -8.66699 8.5 -11l6.5 -9.5l3 -7h2zM480.997 393.996c0 61.333 -32.998 91.999 -98.998 91.999c-32.667 0 -60.834 -13.667 -84.501 -41
s-35.5 -63 -35.5 -107c0 -32 8 -57.667 24 -77s37 -29 63 -29c41.333 0 73.666 15.333 96.999 46s35 69.334 35 116.001z" />
    <glyph glyph-name="A" unicode="A" horiz-adv-x="684" 
d="M672 0h-115l-82 218h-266l-82 -218h-114l281 740h97zM247 317h191l-94 283h-2z" />
    <glyph glyph-name="B" unicode="B" horiz-adv-x="580" 
d="M75 0l-0.00195312 739.994h192c39.333 0 74 -5.66699 104 -17s52.667 -24.666 68 -39.999s27.833 -33.333 37.5 -54s15.667 -38.167 18 -52.5s3.5 -28.166 3.5 -41.499c0 -25.333 -4.33301 -48.166 -13 -68.499s-16.667 -34.666 -24 -42.999s-17 -17.833 -29 -28.5
c73.333 -42.667 110 -102.667 110 -180c0 -17.333 -1.83301 -34.666 -5.5 -51.999s-11.167 -36.166 -22.5 -56.499s-25.666 -38 -42.999 -53s-41.166 -27.667 -71.499 -38s-64.833 -15.5 -103.5 -15.5h-221zM182.998 332.994v-233.998h117c48 0 82.333 12.667 103 38
s31 51.333 31 78c0 25.333 -8.66699 49.666 -26 72.999c-10 13.333 -22.833 23.666 -38.5 30.999s-29 11.5 -40 12.5s-25.167 1.5 -42.5 1.5h-104zM182.998 640.996v-209h88c45.333 0 76.5 10.333 93.5 31s25.5 45 25.5 73c0 70 -41.667 105 -125 105h-82z" />
    <glyph glyph-name="C" unicode="C" horiz-adv-x="782" 
d="M759 551h-130c-61.333 69.333 -130.666 104 -207.999 104c-76.667 0 -141.667 -27.667 -195 -83s-80 -122 -80 -200c0 -78.667 27.167 -146.167 81.5 -202.5s118.166 -84.5 191.499 -84.5c79.333 0 146.666 32.667 201.999 98h133c-38 -67.333 -87.5 -117 -148.5 -149
s-123.5 -48 -187.5 -48c-104.667 0 -194.167 38.167 -268.5 114.5s-111.5 167.166 -111.5 272.499c0 106.667 37.333 196.834 112 270.501s164.334 110.5 269.001 110.5c84.667 0 160 -24 226 -72c44 -31.333 82 -75 114 -131z" />
    <glyph glyph-name="D" unicode="D" horiz-adv-x="732" 
d="M65 0l-0.000976562 740.002h240c135.333 0 236 -45.333 302 -136c50.667 -70.667 76 -149.334 76 -236.001c0 -50 -8.66699 -99.333 -26 -148s-39.666 -86.334 -66.999 -113.001c-72 -71.333 -168.333 -107 -289 -107h-236zM172.999 641.002l-0.000976562 -542h129
c34.667 0 67.334 4.66699 98.001 14s59.5 23.833 86.5 43.5s48.5 47.667 64.5 84s24 78.833 24 127.5c0 30 -4.83301 60.167 -14.5 90.5s-24.5 59.5 -44.5 87.5s-48.333 50.833 -85 68.5s-79 26.5 -127 26.5h-131z" />
    <glyph glyph-name="E" unicode="E" horiz-adv-x="520" 
d="M464 0h-399v740h399v-99h-291v-218h291v-99h-291v-225h291v-99z" />
    <glyph glyph-name="F" unicode="F" horiz-adv-x="482" 
d="M173 0h-108v740h374v-99h-266v-222h266v-99h-266v-320z" />
    <glyph glyph-name="G" unicode="G" horiz-adv-x="831" 
d="M748 554l-126.003 0.000976562c-11.333 12.667 -21.5 23.167 -30.5 31.5s-22.333 18.666 -40 30.999s-37.667 21.833 -60 28.5s-46.166 10 -71.499 10c-76 0 -140.667 -28.333 -194 -85s-80 -124 -80 -202c0 -79.333 27.833 -146.333 83.5 -201s119.5 -82 191.5 -82
c12.667 0 26.334 1.33301 41.001 4s36.5 9 65.5 19s56.833 28.833 83.5 56.5s48.334 62.5 65.001 104.5h-345v99h468c-0.666992 -59.333 -12.5 -113.833 -35.5 -163.5s-52.833 -90 -89.5 -121s-77.167 -55 -121.5 -72s-89.5 -25.5 -135.5 -25.5
c-106.667 0 -196.5 37.5 -269.5 112.5s-109.5 164.833 -109.5 269.5c0 107.333 36.5 198.5 109.5 273.5s162.5 112.5 268.5 112.5c66 0 129.167 -17.333 189.5 -52s107.833 -84 142.5 -148z" />
    <glyph glyph-name="H" unicode="H" horiz-adv-x="670" 
d="M596 0h-108v322h-305v-322h-108v740h108v-319h305v319h108v-740z" />
    <glyph glyph-name="I" unicode="I" horiz-adv-x="257" 
d="M183 0h-108v740h108v-740z" />
    <glyph glyph-name="J" unicode="J" horiz-adv-x="487" 
d="M408 740l-0.000976562 -531.001c0 -40.667 -6 -75.667 -18 -105c-16 -38 -40.667 -67.167 -74 -87.5s-70.666 -30.5 -111.999 -30.5c-49.333 0 -93.5 14.833 -132.5 44.5s-62.833 68.834 -71.5 117.501h111c16 -42 47.333 -63 94 -63c44.667 0 73.667 21 87 63
c5.33301 20 8 38.333 8 55v537h108z" />
    <glyph glyph-name="K" unicode="K" horiz-adv-x="618" 
d="M614 0h-133l-281 373h-2v-373h-108v740h108v-367h2l281 367h133l-289 -367z" />
    <glyph glyph-name="L" unicode="L" horiz-adv-x="444" 
d="M444 0h-365v740h108v-641h257v-99z" />
    <glyph glyph-name="M" unicode="M" horiz-adv-x="934" 
d="M860 0h-108v625h-3l-249 -625h-65l-250 625h-2v-625h-108v740h170l222 -567l223 567h170v-740z" />
    <glyph glyph-name="N" unicode="N" horiz-adv-x="738" 
d="M663 0h-112l-366 572h-2v-572h-108v740h118l360 -563h2v563h108v-740z" />
    <glyph glyph-name="O" unicode="O" horiz-adv-x="846" 
d="M808 368c0 -102.667 -37.167 -191.998 -111.5 -267.998s-165.5 -114 -273.5 -114c-108.667 0 -200 38.167 -274 114.5s-111 166.166 -111 269.499s36.667 193.166 110 269.499s165 114.5 275 114.5c108.667 0 200 -37.667 274 -113s111 -166.333 111 -273zM700 367.002
c0 34 -6.00098 67.4971 -18.001 100.497s-29 63.667 -51 92s-51.167 51.333 -87.5 69s-76.5 26.5 -120.5 26.5c-45.333 0 -86.333 -9.16699 -123 -27.5s-65.834 -42 -87.501 -71s-38.167 -59.667 -49.5 -92s-17 -63.833 -17 -94.5c0 -31.333 5.66699 -63.166 17 -95.499
s27.833 -63 49.5 -92s50.834 -52.5 87.501 -70.5s77.667 -27 123 -27s86.333 9.16699 123 27.5s65.834 41.833 87.501 70.5s38.167 58.834 49.5 90.501s17 62.834 17 93.501z" />
    <glyph glyph-name="P" unicode="P" horiz-adv-x="559" 
d="M173 292v-292h-108v740h214c86 0 151 -20.167 195 -60.5s66 -94.833 66 -163.5s-22 -123.167 -66 -163.5s-109 -60.5 -195 -60.5h-106zM173 641v-250h106c55.333 0 94.666 12.333 117.999 37s35 54 35 88s-11.667 63.333 -35 88s-62.666 37 -117.999 37h-106z" />
    <glyph glyph-name="Q" unicode="Q" horiz-adv-x="837" 
d="M816 86l0.000976562 -100c-29.333 0 -56.666 3.33301 -81.999 10s-44.5 13.334 -57.5 20.001s-28.5 15.667 -46.5 27c-68.667 -38 -139.334 -57 -212.001 -57c-104.667 0 -194.167 37.5 -268.5 112.5s-111.5 166.167 -111.5 273.5c0 106.667 36.667 197 110 271
s163.666 111 270.999 111s197.666 -37.833 270.999 -113.5s110 -165.834 110 -270.501c0 -88 -30.333 -174 -91 -258c18.667 -10.667 34.834 -17.667 48.501 -21s33.167 -5 58.5 -5zM534.001 118c-88 66 -170.333 99 -247 99c-33.333 0 -62 -5.66699 -86 -17
c26 -36 58.333 -64.167 97 -84.5s80 -30.5 124 -30.5s81.333 11 112 33zM621.001 177c47.333 59.333 71 123.666 71 192.999c0 76.667 -26.167 143.334 -78.5 200.001s-116.5 85 -192.5 85c-76.667 0 -141.667 -28.333 -195 -85s-80 -125 -80 -205
c0 -21.333 3.33301 -45.333 10 -72c38 15.333 85 23 141 23c102.667 0 210.667 -46.333 324 -139z" />
    <glyph glyph-name="R" unicode="R" horiz-adv-x="594" 
d="M554 0l-135 -0.000976562l-244 343h-2v-343h-108v740h229c88 0 153.667 -20.667 197 -62c45.333 -43.333 68 -101.666 68 -174.999c0 -36.667 -6 -69.5 -18 -98.5s-26.167 -51.167 -42.5 -66.5s-35 -28 -56 -38s-39.167 -16.5 -54.5 -19.5s-29 -4.5 -41 -4.5z
M173 640.999v-283.001h74c14 0 27 0.333008 39 1s29 3.66699 51 9s40.5 12.666 55.5 21.999s28.5 23.833 40.5 43.5s18 42.834 18 69.501c0 36.667 -13.333 68.834 -40 96.501s-68 41.5 -124 41.5h-114z" />
    <glyph glyph-name="S" unicode="S" horiz-adv-x="499" 
d="M18 219l107.993 0.00488281c0 -7.33301 0.666992 -15.333 2 -24s4.33301 -19.834 9 -33.501s11 -25.834 19 -36.501s19.833 -20 35.5 -28s33.834 -12 54.501 -12c34.667 0 63.167 11.333 85.5 34s33.5 53 33.5 91c0 10 -1.16699 19.5 -3.5 28.5
s-4.66602 16.5 -6.99902 22.5s-7 12.167 -14 18.5s-12 11.166 -15 14.499s-9.66699 7.5 -20 12.5s-16.666 8 -18.999 9s-9.5 3.83301 -21.5 8.5s-18.333 7 -19 7c-50 19.333 -84.5 34 -103.5 44s-36.833 23 -53.5 39c-33.333 32.667 -50 79 -50 139
c0 49.333 18.333 95.166 55 137.499s87.334 63.5 152.001 63.5c62 0 112.833 -18.833 152.5 -56.5s59.5 -87.5 59.5 -149.5h-108c0 37.333 -10.667 64.5 -32 81.5s-45.333 25.5 -72 25.5c-30 0 -54 -10.833 -72 -32.5s-27 -44.5 -27 -68.5
c0 -6.66699 0.666992 -13.167 2 -19.5s3 -12 5 -17s4.83301 -9.83301 8.5 -14.5l9.5 -12c2.66699 -3.33301 6.83398 -6.83301 12.501 -10.5l12.5 -8c2.66699 -1.66699 7.16699 -3.83398 13.5 -6.50098s10.5 -4.5 12.5 -5.5s6.16699 -2.66699 12.5 -5s9.83301 -3.5 10.5 -3.5
l31.5 -11.5c15.667 -5.66699 27.334 -10 35.001 -13s18.834 -7.66699 33.501 -14s25.834 -12.5 33.501 -18.5l29 -22.5c11.667 -9 20.667 -18.667 27 -29s12.666 -22 18.999 -35s11 -27.833 14 -44.5s4.5 -34.667 4.5 -54c0 -65.333 -21 -119 -63 -161s-96.667 -63 -164 -63
c-26.667 0 -53 4.5 -79 13.5s-50.333 22.5 -73 40.5s-41 42.5 -55 73.5s-21 66.167 -21 105.5z" />
    <glyph glyph-name="T" unicode="T" horiz-adv-x="407" 
d="M257 0h-108v641h-142v99h392v-99h-142v-641z" />
    <glyph glyph-name="U" unicode="U" horiz-adv-x="643" 
d="M569 740l0.00390625 -501c0 -78.667 -25 -142 -75 -190c-50.667 -42 -108.334 -63 -173.001 -63s-122.334 21 -173.001 63c-50 48 -75 111.333 -75 190v501h108v-498c0 -26 3.66699 -49 11 -69s16.166 -35.333 26.499 -46s22.333 -19.334 36 -26.001s25.667 -11 36 -13
s20.5 -3 30.5 -3s20.167 1 30.5 3s22.333 6.33301 36 13s25.667 15.334 36 26.001s19.166 26 26.499 46s11 43 11 69v498h108z" />
    <glyph glyph-name="V" unicode="V" horiz-adv-x="684" 
d="M375 0h-65l-298 740h116l215 -555l215 555h114z" />
    <glyph glyph-name="W" unicode="W" horiz-adv-x="906" 
d="M683 0h-95l-134 517h-2l-134 -517h-95l-207 740h112l141 -557h2l143 557h79l141 -553h2l144 553h110z" />
    <glyph glyph-name="X" unicode="X" horiz-adv-x="648" 
d="M507 0l-184 282l-186 -282h-126l245 371l-245 369h129l183 -280l185 280h128l-247 -369l245 -371h-127z" />
    <glyph glyph-name="Y" unicode="Y" horiz-adv-x="593" 
d="M351 0h-108v267l-230 473h121l163 -347l162 347h120l-228 -473v-267z" />
    <glyph glyph-name="Z" unicode="Z" horiz-adv-x="462" 
d="M459 0h-455v99l321 542h-304v99h425v-99l-319 -542h332v-99z" />
    <glyph glyph-name="bracketleft" unicode="[" horiz-adv-x="407" 
d="M329 -134l0.00292969 -123.001c-58.667 23.333 -107.334 59.833 -146.001 109.5s-58 103.5 -58 161.5v453c0 40 6.33301 76.833 19 110.5s29.5 61.834 50.5 84.501s42.5 41.5 64.5 56.5s45.333 27.167 70 36.5v-121c-39.333 -24.667 -65.333 -51.5 -78 -80.5
s-19 -61.5 -19 -97.5v-405c0 -17.333 0.666992 -31.5 2 -42.5s4.66602 -25.833 9.99902 -44.5s15.166 -36.167 29.499 -52.5s32.833 -31.5 55.5 -45.5z" />
    <glyph glyph-name="backslash" unicode="\" horiz-adv-x="499" 
d="M344 -100l-288 840h114l288 -840h-114z" />
    <glyph glyph-name="bracketright" unicode="]" horiz-adv-x="407" 
d="M78 -257l0.00292969 123.001c22.667 14 41.167 29.167 55.5 45.5s24.166 33.833 29.499 52.5s8.66602 33.5 9.99902 44.5s2 25.167 2 42.5v405c0 36 -6.33301 68.5 -19 97.5s-38.667 55.833 -78 80.5v121c24.667 -9.33301 48 -21.5 70 -36.5s43.5 -33.833 64.5 -56.5
s37.833 -50.834 50.5 -84.501s19 -70.5 19 -110.5v-453c0 -58 -19.333 -111.833 -58 -161.5s-87.334 -86.167 -146.001 -109.5z" />
    <glyph glyph-name="asciicircum" unicode="^" horiz-adv-x="600" 
d="M170 355h-104l187 385h94l187 -385h-104l-130 280z" />
    <glyph glyph-name="underscore" unicode="_" horiz-adv-x="500" 
d="M500 -125h-500v50h500v-50z" />
    <glyph glyph-name="grave" unicode="`" 
d="M166 814l225 -123l-44 -80l-223 128z" />
    <glyph glyph-name="a" unicode="a" horiz-adv-x="693" 
d="M626 0h-104v86h-2c-19.333 -32.667 -45.666 -57.5 -78.999 -74.5s-69.666 -25.5 -108.999 -25.5c-89.333 0 -160.666 28.833 -213.999 86.5s-80 125.167 -80 202.5c0 34.667 6.16699 69 18.5 103s30.166 65.5 53.499 94.5s54.333 52.333 93 70s81.667 26.5 129 26.5
c39.333 0 75.666 -8 108.999 -24s59.666 -39 78.999 -69h2v78h104v-554zM524 276c0 58 -18.3311 105.499 -54.998 142.499s-82.334 55.5 -137.001 55.5c-59.333 0 -105.833 -20.667 -139.5 -62s-50.5 -86.666 -50.5 -135.999c0 -51.333 18.167 -96.666 54.5 -135.999
s81.166 -59 134.499 -59c54 0 99.667 19.167 137 57.5s56 84.166 56 137.499z" />
    <glyph glyph-name="b" unicode="b" horiz-adv-x="688" 
d="M170 0l-102.999 0.000976562v740h104v-263h2c44 61.333 107.333 92 190 92c76 0 142.833 -27.833 200.5 -83.5s86.5 -125.167 86.5 -208.5c0 -80.667 -27.333 -149.334 -82 -206.001s-122.334 -85 -203.001 -85c-32 0 -65.833 7.16699 -101.5 21.5
s-66.167 38.5 -91.5 72.5h-2v-80zM168.001 279.001c0 -59.333 18.999 -107.168 56.999 -143.501s82 -54.5 132 -54.5c50.667 0 94.834 19.167 132.501 57.5s56.5 84.5 56.5 138.5c0 53.333 -18.167 99.5 -54.5 138.5s-81.166 58.5 -134.499 58.5
c-54.667 0 -99.834 -19.667 -135.501 -59s-53.5 -84.666 -53.5 -135.999z" />
    <glyph glyph-name="c" unicode="c" horiz-adv-x="627" 
d="M595 370l-115.001 -0.00195312c-34 69.333 -86 104 -156 104c-42 0 -77.333 -10.833 -106 -32.5s-48.5 -46.667 -59.5 -75s-16.5 -57.833 -16.5 -88.5c0 -52 16 -97.833 48 -137.5s76 -59.5 132 -59.5c37.333 0 69.333 9.33301 96 28s47 43.334 61 74.001h116
c-20.667 -60.667 -55.834 -108.667 -105.501 -144s-105.5 -53 -167.5 -53c-86 0 -154.833 29.5 -206.5 88.5s-77.5 126.833 -77.5 203.5c0 78.667 26.333 146.834 79 204.501s121.334 86.5 206.001 86.5c71.333 0 131.333 -21 180 -63s79.334 -87.333 92.001 -136z" />
    <glyph glyph-name="d" unicode="d" horiz-adv-x="687" 
d="M620 0h-96v79h-2c-44.667 -62 -110 -93 -196 -93c-58.667 0 -110.5 14.167 -155.5 42.5s-78.333 64 -100 107s-32.5 89.5 -32.5 139.5c0 34.667 6 69 18 103s29.333 65.5 52 94.5s53 52.333 91 70s80.333 26.5 127 26.5c38 0 73.833 -7.5 107.5 -22.5
s60.5 -35.167 80.5 -60.5h2v254h104v-740zM524 276c0 58 -18.3311 105.499 -54.998 142.499s-82.334 55.5 -137.001 55.5c-59.333 0 -105.833 -20.667 -139.5 -62s-50.5 -86.666 -50.5 -135.999c0 -51.333 18.167 -96.666 54.5 -135.999s81.166 -59 134.499 -59
c54 0 99.667 19.167 137 57.5s56 84.166 56 137.499z" />
    <glyph glyph-name="e" unicode="e" horiz-adv-x="642" 
d="M602 232l-458.999 0.00195312c12 -50 35.5 -87.667 70.5 -113s72.167 -38 111.5 -38c36 0 68 9 96 27s48.667 40 62 66h104c-16.667 -44.667 -41.334 -81.834 -74.001 -111.501s-64.834 -49.834 -96.501 -60.501s-63.5 -16 -95.5 -16c-78 0 -144.5 28.833 -199.5 86.5
s-82.5 126.167 -82.5 205.5c0 82 27.667 151 83 207s122.333 84 201 84c76 0 141.833 -27.333 197.5 -82s83.834 -122 84.501 -202c0 -21.333 -1 -39 -3 -53zM143.001 312.002h358c-2.66699 42 -21.167 79.5 -55.5 112.5s-75.5 49.5 -123.5 49.5s-89.167 -16.5 -123.5 -49.5
s-52.833 -70.5 -55.5 -112.5z" />
    <glyph glyph-name="f" unicode="f" horiz-adv-x="277" 
d="M174 0l-104 -0.000976562v459h-49v95h49v27c0 56 22 99 66 129c21.333 12.667 41 20.834 59 24.501s43.333 5.5 76 5.5v-95c-64.667 0 -97 -21.333 -97 -64v-27h97v-95h-97v-459z" />
    <glyph glyph-name="g" unicode="g" horiz-adv-x="697" 
d="M631 554l0.000976562 -478.998c0 -91.333 -26.5 -163 -79.5 -215s-126.5 -78 -220.5 -78c-63.333 0 -118.833 15.667 -166.5 47s-83.167 74 -106.5 128h116c38.667 -53.333 91.334 -80 158.001 -80c59.333 0.666992 106.666 16.5 141.999 47.5s53 80.5 53 148.5h-2
c-42.667 -58 -106.334 -87 -191.001 -87c-58 0 -110.167 15.167 -156.5 45.5s-81.166 67.666 -104.499 111.999s-35 89.5 -35 135.5c0 32 6.33301 64.5 19 97.5s30.667 64.167 54 93.5s54.666 53.166 93.999 71.499s83 27.5 131 27.5c39.333 0 76 -7.5 110 -22.5
s61 -33.833 81 -56.5v64h104zM527.001 276.002c0 36.667 -6.83398 68.665 -20.501 95.998s-31.167 48 -52.5 62s-42.166 24.167 -62.499 30.5s-39.5 9.5 -57.5 9.5c-54 0 -99.5 -19.5 -136.5 -58.5s-55.5 -85.167 -55.5 -138.5c0 -51.333 18.333 -96.833 55 -136.5
s82 -59.5 136 -59.5c32 0 61 6.66699 87 20s46.5 30.333 61.5 51s26.333 41.834 34 63.501s11.5 41.834 11.5 60.501z" />
    <glyph glyph-name="h" unicode="h" horiz-adv-x="622" 
d="M558 0h-104.001v301c0 115.333 -46 173 -138 173c-44.667 0 -80.167 -15 -106.5 -45s-39.5 -72.333 -39.5 -127v-302h-104v740h104v-245h2c33.333 49.333 85 74 155 74c88 0 153.333 -33 196 -99c22.667 -36.667 34.334 -84 35.001 -142v-328z" />
    <glyph glyph-name="i" unicode="i" horiz-adv-x="238" 
d="M171 554v-554h-104v554h104zM171 740v-122h-104v122h104z" />
    <glyph glyph-name="j" unicode="j" horiz-adv-x="249" 
d="M184 554l0.000976562 -538.001c0 -36 -0.666992 -62.167 -2 -78.5s-6.5 -34.333 -15.5 -54s-22.833 -37.5 -41.5 -53.5c-37.333 -32 -75.333 -48 -114 -48v109c13.333 0.666992 24.5 3.5 33.5 8.5s15.833 10.5 20.5 16.5s8.16699 15.333 10.5 28
s3.66602 23.334 3.99902 32.001s0.5 22 0.5 40v538h104zM184.001 739.999v-122h-104v122h104z" />
    <glyph glyph-name="k" unicode="k" horiz-adv-x="546" 
d="M380 554h123l-201 -261l233 -293h-130l-222 287h-2v-287h-104v740h104v-453h2z" />
    <glyph glyph-name="l" unicode="l" horiz-adv-x="238" 
d="M171 740v-740h-104v740h104z" />
    <glyph glyph-name="m" unicode="m" horiz-adv-x="971" 
d="M905 0l-103.998 -0.00488281v308c0 110.667 -43.667 166 -131 166c-14 0 -27 -1.5 -39 -4.5s-22.333 -6.5 -31 -10.5s-16.334 -10 -23.001 -18l-16.5 -20c-4.33301 -5.33301 -8 -13.666 -11 -24.999s-5.16699 -19.166 -6.5 -23.499s-2.5 -12.5 -3.5 -24.5
s-1.5 -18.833 -1.5 -20.5v-18.5v-309h-104v308c1.33301 48.667 -6.33398 86.667 -23.001 114c-22.667 34.667 -57 52 -103 52c-91.333 0 -137 -55 -137 -165v-309h-104v554h96v-60h2c0.666992 0.666992 2.83398 3.16699 6.50098 7.5s6.33398 7.33301 8.00098 9
s4.66699 4.83398 9 9.50098s8.16602 8.16699 11.499 10.5l13.5 9.5c5.66699 4 11 7.16699 16 9.5s11.167 4.83301 18.5 7.5s14.666 4.83398 21.999 6.50098s15.666 3 24.999 4s19 1.5 29 1.5c36 0 70.333 -8.16699 103 -24.5s55.667 -39.166 69 -68.499
c7.33301 11.333 14 20.5 20 27.5s16.167 16.5 30.5 28.5s32.833 21.167 55.5 27.5s48.334 9.5 77.001 9.5c91.333 0 156.333 -33.333 195 -100c20.667 -37.333 31 -82.333 31 -135v-334z" />
    <glyph glyph-name="n" unicode="n" horiz-adv-x="624" 
d="M558 0h-104.001v301c0 115.333 -46 173 -138 173c-44.667 0 -80.167 -15 -106.5 -45s-39.5 -72.333 -39.5 -127v-302h-104v554h97v-59h2c37.333 49.333 91.333 74 162 74c88 0 153.333 -33 196 -99c22.667 -36.667 34.334 -84 35.001 -142v-328z" />
    <glyph glyph-name="o" unicode="o" horiz-adv-x="675" 
d="M636 279c0 -46.667 -11.5 -91.999 -34.5 -135.999s-58 -81.167 -105 -111.5s-100.167 -45.5 -159.5 -45.5c-88 0 -159.833 30.333 -215.5 91s-83.5 128.667 -83.5 204c0 77.333 28.833 144.666 86.5 201.999s128.5 86 212.5 86c83.333 0 154 -28.5 212 -85.5
s87 -125.167 87 -204.5zM532 279.001c0 51.333 -18.3301 96.668 -54.9971 136.001s-83.334 59 -140.001 59s-103.334 -19.667 -140.001 -59s-55 -85 -55 -137s18.5 -97.833 55.5 -137.5s83.5 -59.5 139.5 -59.5c55.333 0 101.666 19.667 138.999 59s56 85.666 56 138.999z
" />
    <glyph glyph-name="p" unicode="p" horiz-adv-x="686" 
d="M67 -185l-0.000976562 739h95v-85h2c46 66.667 111.667 100 197 100c88.667 0 158.667 -29.833 210 -89.5s77 -129.5 77 -209.5c0 -74.667 -25.833 -140.667 -77.5 -198s-119.167 -86 -202.5 -86c-51.333 0 -93.166 9.66699 -125.499 29s-55.5 41 -69.5 65h-2v-265h-104z
M543.999 276c0 52 -18 97.999 -54 137.999s-81.333 60 -136 60c-53.333 0 -97.5 -19.5 -132.5 -58.5s-52.5 -84.833 -52.5 -137.5c0 -56 18.167 -102.833 54.5 -140.5s80.833 -56.5 133.5 -56.5c50.667 0 94.5 18.333 131.5 55s55.5 83.334 55.5 140.001z" />
    <glyph glyph-name="q" unicode="q" horiz-adv-x="687" 
d="M620 554l0.00195312 -739h-104v262h-2c-18.667 -28 -44.834 -50.167 -78.501 -66.5s-69.167 -24.5 -106.5 -24.5c-86.667 0 -156.667 29.5 -210 88.5s-80 126.833 -80 203.5c0 78 26.667 146 80 204s122.333 87 207 87c29.333 0 56.833 -4 82.5 -12
s46.167 -17.667 61.5 -29s27.166 -21 35.499 -29s13.833 -14.333 16.5 -19h2v74h96zM525.002 275c0 55.333 -18.168 102.333 -54.501 141s-82.166 58 -137.499 58c-56 0 -101.667 -19.333 -137 -58s-53 -84.667 -53 -138c0 -54 18 -100.333 54 -139s82 -58 138 -58
c54.667 0 100 19.333 136 58s54 84 54 136z" />
    <glyph glyph-name="r" unicode="r" horiz-adv-x="320" 
d="M171 0l-104 -0.000976562v554h97v-50h2c28.667 40.667 75.667 62.334 141 65.001v-107c-24.667 0 -49.667 -6.66699 -75 -20c-40.667 -22 -61 -68.333 -61 -139v-303z" />
    <glyph glyph-name="s" unicode="s" horiz-adv-x="424" 
d="M389 407l-104.001 0.000976562c-6 44.667 -29.667 67 -71 67c-19.333 0 -35 -5.5 -47 -16.5s-18 -25.167 -18 -42.5c0 -14.667 4.5 -26.834 13.5 -36.501s18.333 -16.5 28 -20.5s24.5 -9 44.5 -15l23 -7.5c5.33301 -1.66699 14.833 -5.33398 28.5 -11.001
s24.667 -11.167 33 -16.5s18.333 -13 30 -23s20.834 -20.333 27.501 -31s12.5 -24 17.5 -40s7.5 -33 7.5 -51c0 -50.667 -16.667 -92.834 -50 -126.501s-78.666 -50.5 -135.999 -50.5c-19.333 0 -39.5 3.33301 -60.5 10s-42 16.834 -63 30.501s-38.333 34 -52 61
s-20.5 58.5 -20.5 94.5h104c2 -31.333 11 -56 27 -74s38.333 -27 67 -27c24 0 43.333 6.83301 58 20.5s22 32.167 22 55.5c0 22 -7.83301 38.667 -23.5 50s-40.167 23 -73.5 35c-2.66699 0.666992 -6.33398 2 -11.001 4c-21.333 7.33301 -37.833 13.833 -49.5 19.5
s-26.334 14.834 -44.001 27.501s-30.667 28.667 -39 48s-12.5 42 -12.5 68c0 42.667 16.333 80 49 112s74.334 48 125.001 48c24 0 48 -4.66699 72 -14s46.167 -26.833 66.5 -52.5s30.833 -57.5 31.5 -95.5z" />
    <glyph glyph-name="t" unicode="t" horiz-adv-x="277" 
d="M183 459v-459h-104v459h-75v95h75v186h104v-186h91v-95h-91z" />
    <glyph glyph-name="u" unicode="u" horiz-adv-x="624" 
d="M66 554h103.999v-300c0 -64 12.333 -108.833 37 -134.5s58.334 -38.5 101.001 -38.5c44.667 0 80 14.667 106 44s39 73.333 39 132v297h104v-554h-95v60h-2c-14 -23.333 -35.667 -41.5 -65 -54.5s-62 -19.5 -98 -19.5c-63.333 0 -116 18.333 -158 55
c-48.667 42 -73 113 -73 213v300z" />
    <glyph glyph-name="v" unicode="v" horiz-adv-x="537" 
d="M524 554l-218 -554h-73l-220 554h111l145 -396h2l142 396h111z" />
    <glyph glyph-name="w" unicode="w" horiz-adv-x="795" 
d="M782 554l-205 -554h-58l-120 373h-2l-120 -373h-57l-207 554h111l123 -360h2l115 360h68l115 -360h2l122 360h111z" />
    <glyph glyph-name="x" unicode="x" horiz-adv-x="518" 
d="M378 554h126l-181 -270l193 -284h-122l-137 197l-134 -197h-121l192 284l-185 270h126l122 -182z" />
    <glyph glyph-name="y" unicode="y" horiz-adv-x="574" 
d="M564 554l-306 -739h-108l81 196l-221 543h112l163 -430l167 430h112z" />
    <glyph glyph-name="z" unicode="z" horiz-adv-x="407" 
d="M29 554h354v-101l-251 -358h272v-95h-401v81l266 378h-240v95z" />
    <glyph glyph-name="braceleft" unicode="{" horiz-adv-x="333" 
d="M14 231l0.000976562 85.998c20.667 0 41.167 7 61.5 21s30.5 34.667 30.5 62v205c0 42.667 13.833 75.834 41.5 99.501s59.5 35.5 95.5 35.5h65v-79h-44c-36 0 -54 -24.333 -54 -73v-202c0 -36.667 -10.833 -63.667 -32.5 -81s-43.834 -27 -66.501 -29v-3
c66 -8.66699 99 -48 99 -118v-201c0 -48.667 18 -73 54 -73h44v-79h-65c-36 0 -67.833 11.833 -95.5 35.5s-41.5 56.834 -41.5 99.501v204c0 30 -10.167 52.5 -30.5 67.5s-40.833 22.5 -61.5 22.5z" />
    <glyph glyph-name="bar" unicode="|" 
d="M221 740h113v-840h-113v840z" />
    <glyph glyph-name="braceright" unicode="}" horiz-adv-x="333" 
d="M319 311l-0.000976562 -85.998c-20.667 0 -41.167 -7 -61.5 -21s-30.5 -34.667 -30.5 -62v-205c0 -42.667 -13.833 -75.834 -41.5 -99.501s-59.5 -35.5 -95.5 -35.5h-65v79h44c36 0 54 24.333 54 73v202c0 36.667 10.833 63.667 32.5 81s43.834 27 66.501 29v3
c-66 8.66699 -99 48 -99 118v201c0 48.667 -18 73 -54 73h-44v79h65c36 0 67.833 -11.833 95.5 -35.5s41.5 -56.834 41.5 -99.501v-204c0 -30 10.167 -52.5 30.5 -67.5s40.833 -22.5 61.5 -22.5z" />
    <glyph glyph-name="asciitilde" unicode="~" horiz-adv-x="600" 
d="M495 339l35.998 -82c-13.333 -18 -24.333 -32 -33 -42s-21.334 -19.833 -38.001 -29.5s-34.667 -14.5 -54 -14.5c-28 0 -62 11 -102 33c-41.333 23.333 -79.666 35 -114.999 35c-34 0 -62 -24 -84 -72l-36 82c30 57.333 71.667 86 125 86c26 0 63 -10.667 111 -32
l21.5 -9.5c9.66699 -4.33301 17.334 -7.66602 23.001 -9.99902l20 -8c7.66699 -3 14.5 -5.16699 20.5 -6.5s11.667 -2 17 -2c12.667 0 24.834 4 36.501 12s20.667 16.167 27 24.5s14.5 20.166 24.5 35.499z" />
    <glyph glyph-name="exclamdown" unicode="&#xa1;" horiz-adv-x="277" 
d="M190 370v-555h-104v555h104zM190 555v-122h-104v122h104z" />
    <glyph glyph-name="cent" unicode="&#xa2;" 
d="M397 319h117c-14 -40 -37 -73 -69 -99s-69.667 -43.667 -113 -53v-98h-95v98c-39.333 8.66699 -73 22.834 -101 42.501s-48.667 41.834 -62 66.501s-22.666 47.667 -27.999 69s-8 42.333 -8 63c0 58 17.667 108.833 53 152.5s84 71.5 146 83.5v96h95v-96
c44.667 -6.66699 82.834 -23.834 114.501 -51.501s55.167 -63.5 70.5 -107.5h-119c-8 16.667 -21.667 30.667 -41 42s-43 17 -71 17c-46.667 0 -82.334 -14.833 -107.001 -44.5s-37 -61.834 -37 -96.501c0 -36 13.167 -68.167 39.5 -96.5s61.166 -42.5 104.499 -42.5
c48.667 0 85.667 18.333 111 55z" />
    <glyph glyph-name="sterling" unicode="&#xa3;" 
d="M428 272l112 0.00292969c4 -21.333 6 -39.666 6 -54.999c0 -24.667 -3.66699 -48.834 -11 -72.501s-19 -46.834 -35 -69.501s-39.5 -40.834 -70.5 -54.501s-67.833 -20.5 -110.5 -20.5h-277v95h132c13.333 25.333 20.333 54.333 21 87c0 64 -24.667 112.333 -74 145h-112
v95h40c-15.333 27.333 -23 57.333 -23 90c0 68 22 125.333 66 172s103.667 70 179 70c56.667 0 108.167 -17.5 154.5 -52.5s75.833 -84.167 88.5 -147.5h-113c-22 70 -66.333 105 -133 105c-42 0 -75.5 -14.333 -100.5 -43s-37.5 -63.334 -37.5 -104.001
c0 -35.333 12.333 -65.333 37 -90h219v-95h-140c35.333 -30.667 53 -79 53 -145c0 -23.333 -4.33301 -52.333 -13 -87h33c44 0 75.5 12.5 94.5 37.5s28.5 52.833 28.5 83.5c0 17.333 -4.66699 36 -14 56z" />
    <glyph glyph-name="currency" unicode="&#xa4;" 
d="M27 135l71 69c-24 35.333 -36 75 -36 119c0.666992 44 12.667 83.667 36 119l-70 67l62 65l70 -70c31.333 22 71 33 119 33c42.667 0 81.334 -11.333 116.001 -34l70 70l64 -63l-69 -68c22 -38 32.667 -77.667 32 -119c0.666992 -44 -10 -83 -32 -117l69 -70l-64 -64
l-70 69c-35.333 -22.667 -74 -34 -116 -34c-42.667 0 -82.334 11.667 -119.001 35l-70 -70zM157 322c0 -33.333 11.833 -61.666 35.5 -84.999s51.834 -35 84.501 -35s60.834 11.667 84.501 35s35.5 51.666 35.5 84.999s-11.833 61.666 -35.5 84.999s-51.834 35 -84.501 35
s-60.834 -11.667 -84.501 -35s-35.5 -51.666 -35.5 -84.999z" />
    <glyph glyph-name="yen" unicode="&#xa5;" 
d="M368 400l-39 -71v-43h206v-86h-206v-200h-104v200h-205v86h205v43l-39 71h-166v86h123l-143 254h113l164 -298l165 298h113l-144 -254h124v-86h-167z" />
    <glyph glyph-name="brokenbar" unicode="&#xa6;" 
d="M221 740h113v-336h-113v336zM221 236h113v-336h-113v336z" />
    <glyph glyph-name="section" unicode="&#xa7;" horiz-adv-x="573" 
d="M490 565l-103.999 0.000976562c-10.667 60 -42.334 90 -95.001 90c-34 0 -57.833 -8.83301 -71.5 -26.5s-20.5 -36.167 -20.5 -55.5c0 -13.333 4 -25.5 12 -36.5s16.333 -19.167 25 -24.5s19.667 -11.333 33 -18l136 -71c17.333 -8.66699 31.333 -16.334 42 -23.001
s23.834 -16.667 39.501 -30s27.5 -29 35.5 -47s12 -38 12 -60c0 -62.667 -30 -114 -90 -154c39.333 -34.667 59 -77.667 59 -129c0 -60 -20.833 -108.667 -62.5 -146s-92.834 -56 -153.501 -56c-59.333 0 -110 19 -152 57s-64.667 91 -68 159h104
c2.66699 -35.333 14 -63.666 34 -84.999s48.333 -32 85 -32c35.333 0 62.333 9.66699 81 29s28 43 28 71c0 11.333 -1.33301 21.166 -4 29.499s-11 19 -25 32s-34.333 26.5 -61 40.5l-153 79c-16.667 8.66699 -29.5 16 -38.5 22s-20.5 15.5 -34.5 28.5
s-24.5 28.833 -31.5 47.5s-10.5 40 -10.5 64c0 67.333 31 119 93 155c-26 36.667 -39 71.667 -39 105c0 42 16.5 81.5 49.5 118.5s80.5 55.5 142.5 55.5c21.333 0 42 -2.83301 62 -8.5s40.333 -15.167 61 -28.5s38.167 -33 52.5 -59s23.5 -57 27.5 -93zM363.001 332.001
l-167 85c-34 -22 -51 -51.333 -51 -88c0 -35.333 17 -61.666 51 -78.999l179 -92c18.667 15.333 32.5 29.5 41.5 42.5s13.5 29.5 13.5 49.5c0 19.333 -5.16699 34.666 -15.5 45.999s-27.5 23.333 -51.5 36z" />
    <glyph glyph-name="dieresis" unicode="&#xa8;" 
d="M303 758h104v-122h-104v122zM148 758h104v-122h-104v122z" />
    <glyph glyph-name="copyright" unicode="&#xa9;" horiz-adv-x="800" 
d="M598 447h-75c-18 54 -57 81 -117 81c-40 0 -73.333 -14.833 -100 -44.5s-40 -67.167 -40 -112.5c0 -48.667 13.333 -87 40 -115s60 -42 100 -42c62 0 101 27 117 81h75c-4.66699 -41.333 -24.834 -77 -60.501 -107s-79.5 -45 -131.5 -45
c-64.667 0 -116.667 21.5 -156 64.5s-59 97.5 -59 163.5s19.667 120.5 59 163.5s91.333 64.5 156 64.5c52 0 95.833 -15 131.5 -45s55.834 -65.667 60.501 -107zM401 752c105.333 0 195.168 -37.5 269.501 -112.5s111.5 -164.833 111.5 -269.5
c0 -105.333 -37.333 -195.333 -112 -270s-164.334 -112 -269.001 -112c-106.667 0 -197.167 37.333 -271.5 112s-111.5 164.667 -111.5 270c0 104.667 37.167 194.5 111.5 269.5s164.833 112.5 271.5 112.5zM400.002 676c-85.333 0 -157 -30 -215 -90s-87 -132 -87 -216
c0 -84.667 29.333 -156.834 88 -216.501s130 -89.5 214 -89.5c83.333 0 154.5 29.833 213.5 89.5s88.5 131.834 88.5 216.501c0 84 -29.167 156 -87.5 216s-129.833 90 -214.5 90z" />
    <glyph glyph-name="ordfeminine" unicode="&#xaa;" horiz-adv-x="385" 
d="M346 746l0.000976562 -308h-80v35h-2c-6 -11.333 -17.333 -21.333 -34 -30s-35 -13 -55 -13c-48.667 0 -87.834 16 -117.501 48s-44.5 69.667 -44.5 113c0 42 14.5 79.667 43.5 113s69.167 50 120.5 50c18.667 0 36 -4.16699 52 -12.5s27.667 -18.5 35 -30.5h2v35h80z
M267.001 592c0 25.333 -8.49902 46.166 -25.499 62.499s-38.5 24.5 -64.5 24.5c-26.667 0 -47.334 -9 -62.001 -27s-22 -38.333 -22 -61s8 -42.667 24 -60s35.667 -26 59 -26c26 0 47.667 7.83301 65 23.5s26 36.834 26 63.501z" />
    <glyph glyph-name="guillemotleft" unicode="&#xab;" horiz-adv-x="370" 
d="M337 475v-113l-75 -74l75 -74v-112l-137 134v103zM170 475v-113l-75 -74l75 -74v-112l-137 134v103z" />
    <glyph glyph-name="logicalnot" unicode="&#xac;" horiz-adv-x="600" 
d="M448 108v202h-400v104h504v-306h-104z" />
    <glyph glyph-name="registered" unicode="&#xae;" horiz-adv-x="800" 
d="M237 585l184 0.000976562c10 0 19 -0.166992 27 -0.5s20.667 -2.66602 38 -6.99902s31.833 -10.333 43.5 -18s22.167 -19.5 31.5 -35.5s14 -35.333 14 -58c0 -58 -27 -93.333 -81 -106v-2c28 -8 46.833 -20.333 56.5 -37s15.167 -40.667 16.5 -72
c2 -39.333 3.66699 -63.833 5 -73.5s4.33301 -18.834 9 -27.501h-75c-7.33301 11.333 -11.666 38.333 -12.999 81c-1.33301 35.333 -7.83301 59.166 -19.5 71.499s-35.834 19.833 -72.501 22.5h-89v-175h-75v437zM312 514.001v-121h90c12 0 21.833 0.5 29.5 1.5
s17.667 3.33301 30 7s21.833 10.667 28.5 21s10 23.833 10 40.5c-4 34 -33.333 51 -88 51h-100zM401 752.001c105.333 0 195.168 -37.5 269.501 -112.5s111.5 -164.833 111.5 -269.5c0 -105.333 -37.333 -195.333 -112 -270s-164.334 -112 -269.001 -112
c-106.667 0 -197.167 37.333 -271.5 112s-111.5 164.667 -111.5 270c0 104.667 37.167 194.5 111.5 269.5s164.833 112.5 271.5 112.5zM400.002 676.001c-85.333 0 -157 -30 -215 -90s-87 -132 -87 -216c0 -84.667 29.333 -156.834 88 -216.501s130 -89.5 214 -89.5
c83.333 0 154.5 29.833 213.5 89.5s88.5 131.834 88.5 216.501c0 84 -29.167 156 -87.5 216s-129.833 90 -214.5 90z" />
    <glyph glyph-name="macron" unicode="&#xaf;" 
d="M455 659h-355v75h355v-75z" />
    <glyph glyph-name="degree" unicode="&#xb0;" horiz-adv-x="400" 
d="M200 485c22 0 41 8.5 57 25.5s24 36.833 24 59.5c0 22 -8 41.333 -24 58s-35 25 -57 25s-41 -8.33301 -57 -25s-24 -36 -24 -58c0 -22.667 8 -42.5 24 -59.5s35 -25.5 57 -25.5zM200 426c-40 0 -73.833 13.833 -101.5 41.5s-41.5 61.5 -41.5 101.5
s13.833 73.833 41.5 101.5s61.5 41.5 101.5 41.5s73.833 -13.833 101.5 -41.5s41.5 -61.5 41.5 -101.5s-13.833 -73.833 -41.5 -101.5s-61.5 -41.5 -101.5 -41.5z" />
    <glyph glyph-name="plusminus" unicode="&#xb1;" horiz-adv-x="600" 
d="M248 384v162h104v-162h200v-104h-200v-162h-104v162h-200v104h200zM48 -52v104h504v-104h-504z" />
    <glyph glyph-name="twosuperior" unicode="&#xb2;" horiz-adv-x="351" 
d="M318 296l-290 -0.00195312v62l170 172c26 26 39 50.667 39 74c0 18 -5.83301 34.167 -17.5 48.5s-27.167 21.5 -46.5 21.5c-20.667 0 -37.167 -7 -49.5 -21s-18.5 -31 -18.5 -51v-18h-80v20c0 38.667 13.833 72.667 41.5 102s62.167 44 103.5 44c42 0 77 -14.5 105 -43.5
s42 -63.167 42 -102.5c0 -18 -3.5 -35.167 -10.5 -51.5s-13.667 -28.666 -20 -36.999s-15.833 -19.166 -28.5 -32.499l-110 -111h170v-76z" />
    <glyph glyph-name="threesuperior" unicode="&#xb3;" horiz-adv-x="351" 
d="M16 432l79.999 -0.00390625c1.33301 -15.333 5 -28.166 11 -38.499s13.333 -17.5 22 -21.5s15.834 -6.66699 21.501 -8s11.5 -2 17.5 -2c21.333 0 38 6.66699 50 20s18 29.333 18 48c0 20.667 -7 37.334 -21 50.001s-31 19 -51 19h-26v76h25c10 0 18.667 1.83301 26 5.5
s12.666 7.66699 15.999 12s5.83301 9.33301 7.5 15s2.66699 9.83398 3 12.501s0.5 5 0.5 7c0 13.333 -4.16699 24.5 -12.5 33.5s-20.166 13.5 -35.499 13.5c-12 0 -22.667 -3.83301 -32 -11.5s-14.333 -20.5 -15 -38.5h-80c0 42.667 16 75.667 48 99c24 18 50.333 27 79 27
c32 0 61.333 -11.667 88 -35s40 -54.666 40 -93.999c0 -14 -2.5 -27 -7.5 -39s-9.66699 -20.333 -14 -25l-18.5 -19c40 -23.333 60 -59.333 60 -108c0 -42 -15.333 -76.5 -46 -103.5s-66 -40.5 -106 -40.5c-38 0 -72.167 13.333 -102.5 40s-45.5 62 -45.5 106z" />
    <glyph glyph-name="acute" unicode="&#xb4;" 
d="M206 611l-42 75l223 128l44 -81z" />
    <glyph glyph-name="paragraph" unicode="&#xb6;" horiz-adv-x="638" 
d="M221 -191l0.000976562 534c-68.667 0 -122.334 15.833 -161.001 47.5s-58 74.167 -58 127.5c0 66 21 112.833 63 140.5s101 41.5 177 41.5h293v-891h-104v811h-106v-811h-104z" />
    <glyph glyph-name="periodcentered" unicode="&#xb7;" horiz-adv-x="277" 
d="M184 200h-91v108h91v-108z" />
    <glyph glyph-name="cedilla" unicode="&#xb8;" 
d="M292 0l-21 -67.999c2 0 5.33301 0.166992 10 0.5s8 0.5 10 0.5c22 0 41.167 -7.83301 57.5 -23.5s24.5 -35.834 24.5 -60.501c0 -25.333 -8.83301 -47.5 -26.5 -66.5s-41.5 -28.5 -71.5 -28.5c-22 0 -42.333 7 -61 21s-29.334 34.333 -32.001 61h53
c7.33301 -20.667 21 -31 41 -31c12 0 22 3.66699 30 11s12 17.333 12 30c0 12 -4.16699 21.5 -12.5 28.5s-18.166 10.5 -29.499 10.5c-12 0 -23.333 -4.66699 -34 -14l-34 32l32 97h52z" />
    <glyph glyph-name="onesuperior" unicode="&#xb9;" horiz-adv-x="351" 
d="M239 740v-444h-80v368h-62v76h142z" />
    <glyph glyph-name="ordmasculine" unicode="&#xba;" horiz-adv-x="385" 
d="M358 593c0 -40.667 -15.333 -78 -46 -112s-70.667 -51 -120 -51c-48.667 0 -88.5 16.833 -119.5 50.5s-46.5 71.5 -46.5 113.5c0 42.667 16 80 48 112s71.333 48 118 48c46 0 85.167 -15.833 117.5 -47.5s48.5 -69.5 48.5 -113.5zM278 593c0 22.667 -8 42.667 -24 60
s-36.667 26 -62 26s-46 -8.66699 -62 -26s-24 -37.666 -24 -60.999c0 -22.667 8.16699 -42.834 24.5 -60.501s36.833 -26.5 61.5 -26.5s45.167 8.83301 61.5 26.5s24.5 38.167 24.5 61.5z" />
    <glyph glyph-name="guillemotright" unicode="&#xbb;" horiz-adv-x="370" 
d="M33 362v113l137 -136v-103l-137 -134v112l75 74zM200 362v113l137 -136v-103l-137 -134v112l75 74z" />
    <glyph glyph-name="onequarter" unicode="&#xbc;" horiz-adv-x="700" 
d="M200 0h-73l333 740h73zM636 444v-307h48v-68h-48v-69h-70v69h-206v69l208 306h68zM443 137h123v190h-2zM158 740v-444h-80v368h-62v76h142z" />
    <glyph glyph-name="onehalf" unicode="&#xbd;" horiz-adv-x="714" 
d="M158 740v-444h-80v368h-62v76h142zM174 0h-73l336 740h73zM698 0l-290 -0.00195312v62l170 172c26 26 39 50.667 39 74c0 18 -5.83301 34.167 -17.5 48.5s-27.167 21.5 -46.5 21.5c-20.667 0 -37.167 -7 -49.5 -21s-18.5 -31 -18.5 -51v-18h-80v20
c0 38.667 13.833 72.667 41.5 102s62.167 44 103.5 44c42 0 77 -14.5 105 -43.5s42 -63.167 42 -102.5c0 -18 -3.5 -35.167 -10.5 -51.5s-13.667 -28.666 -20 -36.999s-15.833 -19.166 -28.5 -32.499l-110 -111h170v-76z" />
    <glyph glyph-name="threequarters" unicode="&#xbe;" horiz-adv-x="781" 
d="M281 0h-73l333 740h73zM717 444v-307h48v-68h-48v-69h-70v69h-206v69l208 306h68zM524 137h123v190h-2zM16 432l79.999 -0.00390625c1.33301 -15.333 5 -28.166 11 -38.499s13.333 -17.5 22 -21.5s15.834 -6.66699 21.501 -8s11.5 -2 17.5 -2c21.333 0 38 6.66699 50 20
s18 29.333 18 48c0 20.667 -7 37.334 -21 50.001s-31 19 -51 19h-26v76h25c10 0 18.667 1.83301 26 5.5s12.666 7.66699 15.999 12s5.83301 9.33301 7.5 15s2.66699 9.83398 3 12.501s0.5 5 0.5 7c0 13.333 -4.16699 24.5 -12.5 33.5s-20.166 13.5 -35.499 13.5
c-12 0 -22.667 -3.83301 -32 -11.5s-14.333 -20.5 -15 -38.5h-80c0 42.667 16 75.667 48 99c24 18 50.333 27 79 27c32 0 61.333 -11.667 88 -35s40 -54.666 40 -93.999c0 -14 -2.5 -27 -7.5 -39s-9.66699 -20.333 -14 -25l-18.5 -19c40 -23.333 60 -59.333 60 -108
c0 -42 -15.333 -76.5 -46 -103.5s-66 -40.5 -106 -40.5c-38 0 -72.167 13.333 -102.5 40s-45.5 62 -45.5 106z" />
    <glyph glyph-name="questiondown" unicode="&#xbf;" horiz-adv-x="518" 
d="M215 365l103.999 0.00195312c-0.666992 -35.333 -7.33398 -68.666 -20.001 -99.999s-25.167 -54.833 -37.5 -70.5s-27.833 -32.834 -46.5 -51.501c-30 -30.667 -49.333 -52.5 -58 -65.5s-13 -29.167 -13 -48.5c0 -34.667 11.5 -63.834 34.5 -87.501
s50.833 -35.5 83.5 -35.5c41.333 0 74.333 18 99 54c10.667 14.667 17.667 36.667 21 66h104c-2 -40 -10.667 -75.333 -26 -106s-34.666 -54.167 -57.999 -70.5s-46.833 -28.5 -70.5 -36.5s-47.167 -12 -70.5 -12c-62.667 0 -115.167 22.833 -157.5 68.5
s-63.5 97.5 -63.5 155.5c0 29.333 5 56 15 80s19.833 41.333 29.5 52s24.5 25 44.5 43c22.667 20 40.334 40.667 53.001 62s20.5 38.166 23.5 50.499s6.16699 29.833 9.5 52.5zM214.999 433.002v122h104v-122h-104z" />
    <glyph glyph-name="Agrave" unicode="&#xc0;" horiz-adv-x="684" 
d="M672 0h-115l-82 218h-266l-82 -218h-114l281 740h97zM247 317h191l-94 283h-2zM231 975l225 -123l-44 -80l-223 128z" />
    <glyph glyph-name="Aacute" unicode="&#xc1;" horiz-adv-x="684" 
d="M672 0h-115l-82 218h-266l-82 -218h-114l281 740h97zM247 317h191l-94 283h-2zM271 772l-42 75l223 128l44 -81z" />
    <glyph glyph-name="Acircumflex" unicode="&#xc2;" horiz-adv-x="684" 
d="M672 0h-115l-82 218h-266l-82 -218h-114l281 740h97zM247 317h191l-94 283h-2zM532 793h-119l-69 69l-72 -69h-119l139 135h100z" />
    <glyph glyph-name="Atilde" unicode="&#xc3;" horiz-adv-x="684" 
d="M672 0h-115l-82 218h-266l-82 -218h-114l281 740h97zM247 317h191l-94 283h-2zM206 806l-47.001 65c40.667 26 75 39 103 39c7.33301 0 31 -4.5 71 -13.5s63.333 -13.5 70 -13.5c15.333 0 42 9.33301 80 28l43 -63c-37.333 -30.667 -73.666 -46 -108.999 -46
c-8 0 -31.833 4.33301 -71.5 13s-62.834 13 -69.501 13c-17.333 0 -40.666 -7.33301 -69.999 -22z" />
    <glyph glyph-name="Adieresis" unicode="&#xc4;" horiz-adv-x="684" 
d="M672 0h-115l-82 218h-266l-82 -218h-114l281 740h97zM247 317h191l-94 283h-2zM368 919h104v-122h-104v122zM213 919h104v-122h-104v122z" />
    <glyph glyph-name="Aring" unicode="&#xc5;" horiz-adv-x="684" 
d="M672 0h-115l-82 218h-266l-82 -218h-114l281 740h97zM247 317h191l-94 283h-2zM453 871c0 -30 -10.833 -55.833 -32.5 -77.5s-47.834 -32.5 -78.501 -32.5c-30 0 -55.833 10.833 -77.5 32.5s-32.5 47.5 -32.5 77.5c0 30.667 10.833 56.834 32.5 78.501
s47.5 32.5 77.5 32.5c30.667 0 56.834 -10.833 78.501 -32.5s32.5 -47.834 32.5 -78.501zM394 871c0 14.667 -5 27 -15 37s-22.333 15 -37 15c-14 0 -26 -5 -36 -15s-15 -22.333 -15 -37c0 -14 5 -26 15 -36s22 -15 36 -15c14.667 0 27 5 37 15s15 22 15 36z" />
    <glyph glyph-name="AE" unicode="&#xc6;" horiz-adv-x="930" 
d="M497 740h369v-99h-252v-218h252v-99h-252v-225h252v-99h-360v205h-244l-135 -205h-127zM333 304h173v276h-1h-2z" />
    <glyph glyph-name="Ccedilla" unicode="&#xc7;" horiz-adv-x="782" 
d="M309 -164h53c7.33301 -20.667 21 -31 41 -31c12 0 22 3.66699 30 11s12 17.333 12 30c0 12 -4.16699 21.5 -12.5 28.5s-18.166 10.5 -29.499 10.5c-12 0 -23.333 -4.66699 -34 -14l-34 32l29 88c-92 13.333 -169.333 56.333 -232 129s-94 157 -94 253
c0 106.667 37.333 196.834 112 270.501s164.334 110.5 269.001 110.5c84.667 0 160 -24 226 -72c44 -31.333 82 -75 114 -131h-130c-61.333 69.333 -130.666 104 -207.999 104c-76.667 0 -141.667 -27.667 -195 -83s-80 -122 -80 -200
c0 -78.667 27.167 -146.167 81.5 -202.5s118.166 -84.5 191.499 -84.5c79.333 0 146.666 32.667 201.999 98h133c-38 -67.333 -87.5 -117 -148.5 -149s-123.5 -48 -187.5 -48h-3l-17 -54c2 0 5.33301 0.166992 10 0.5s8 0.5 10 0.5c22 0 41.167 -7.83301 57.5 -23.5
s24.5 -35.834 24.5 -60.501c0 -25.333 -8.83301 -47.5 -26.5 -66.5s-41.5 -28.5 -71.5 -28.5c-22 0 -42.333 7 -61 21s-29.334 34.333 -32.001 61z" />
    <glyph glyph-name="Egrave" unicode="&#xc8;" horiz-adv-x="520" 
d="M464 0h-399v740h399v-99h-291v-218h291v-99h-291v-225h291v-99zM149 980l225 -123l-44 -80l-223 128z" />
    <glyph glyph-name="Eacute" unicode="&#xc9;" horiz-adv-x="520" 
d="M464 0h-399v740h399v-99h-291v-218h291v-99h-291v-225h291v-99zM189 777l-42 75l223 128l44 -81z" />
    <glyph glyph-name="Ecircumflex" unicode="&#xca;" horiz-adv-x="520" 
d="M464 0h-399v740h399v-99h-291v-218h291v-99h-291v-225h291v-99zM450 798h-119l-69 69l-72 -69h-119l139 135h100z" />
    <glyph glyph-name="Edieresis" unicode="&#xcb;" horiz-adv-x="520" 
d="M464 0h-399v740h399v-99h-291v-218h291v-99h-291v-225h291v-99zM286 924h104v-122h-104v122zM131 924h104v-122h-104v122z" />
    <glyph glyph-name="Igrave" unicode="&#xcc;" horiz-adv-x="257" 
d="M183 0h-108v740h108v-740zM-23 980l225 -123l-44 -80l-223 128z" />
    <glyph glyph-name="Iacute" unicode="&#xcd;" horiz-adv-x="257" 
d="M183 0h-108v740h108v-740zM97 777l-42 75l223 128l44 -81z" />
    <glyph glyph-name="Icircumflex" unicode="&#xce;" horiz-adv-x="257" 
d="M183 0h-108v740h108v-740zM318 798h-119l-69 69l-72 -69h-119l139 135h100z" />
    <glyph glyph-name="Idieresis" unicode="&#xcf;" horiz-adv-x="257" 
d="M183 0h-108v740h108v-740zM154 924h104v-122h-104v122zM-1 924h104v-122h-104v122z" />
    <glyph glyph-name="Eth" unicode="&#xd0;" horiz-adv-x="732" 
d="M65 322l-63.001 0.00195312v99h63v319h242c134 0 234 -45.333 300 -136c50.667 -70.667 76 -149.334 76 -236.001c0 -50 -8.66699 -99.333 -26 -148s-39.666 -86.334 -66.999 -113.001c-72 -71.333 -167.667 -107 -287 -107h-238v322zM365.999 421.002v-99h-193v-223h131
c33.333 0 65.333 4.66699 96 14s59.5 23.833 86.5 43.5s48.5 47.667 64.5 84s24 78.833 24 127.5c0 30 -5 60.167 -15 90.5s-25 59.5 -45 87.5s-48.167 50.833 -84.5 68.5s-77.833 26.5 -124.5 26.5h-133v-220h193z" />
    <glyph glyph-name="Ntilde" unicode="&#xd1;" horiz-adv-x="738" 
d="M663 0h-112l-366 572h-2v-572h-108v740h118l360 -563h2v563h108v-740zM233 806l-47.001 65c40.667 26 75 39 103 39c7.33301 0 31 -4.5 71 -13.5s63.333 -13.5 70 -13.5c15.333 0 42 9.33301 80 28l43 -63c-37.333 -30.667 -73.666 -46 -108.999 -46
c-8 0 -31.833 4.33301 -71.5 13s-62.834 13 -69.501 13c-17.333 0 -40.666 -7.33301 -69.999 -22z" />
    <glyph glyph-name="Ograve" unicode="&#xd2;" horiz-adv-x="846" 
d="M808 368c0 -102.667 -37.167 -191.998 -111.5 -267.998s-165.5 -114 -273.5 -114c-108.667 0 -200 38.167 -274 114.5s-111 166.166 -111 269.499s36.667 193.166 110 269.499s165 114.5 275 114.5c108.667 0 200 -37.667 274 -113s111 -166.333 111 -273zM700 367.002
c0 34 -6.00098 67.4971 -18.001 100.497s-29 63.667 -51 92s-51.167 51.333 -87.5 69s-76.5 26.5 -120.5 26.5c-45.333 0 -86.333 -9.16699 -123 -27.5s-65.834 -42 -87.501 -71s-38.167 -59.667 -49.5 -92s-17 -63.833 -17 -94.5c0 -31.333 5.66699 -63.166 17 -95.499
s27.833 -63 49.5 -92s50.834 -52.5 87.501 -70.5s77.667 -27 123 -27s86.333 9.16699 123 27.5s65.834 41.833 87.501 70.5s38.167 58.834 49.5 90.501s17 62.834 17 93.501zM311.999 979.999l225 -123l-44 -80l-223 128z" />
    <glyph glyph-name="Oacute" unicode="&#xd3;" horiz-adv-x="846" 
d="M808 368c0 -102.667 -37.167 -191.998 -111.5 -267.998s-165.5 -114 -273.5 -114c-108.667 0 -200 38.167 -274 114.5s-111 166.166 -111 269.499s36.667 193.166 110 269.499s165 114.5 275 114.5c108.667 0 200 -37.667 274 -113s111 -166.333 111 -273zM700 367.002
c0 34 -6.00098 67.4971 -18.001 100.497s-29 63.667 -51 92s-51.167 51.333 -87.5 69s-76.5 26.5 -120.5 26.5c-45.333 0 -86.333 -9.16699 -123 -27.5s-65.834 -42 -87.501 -71s-38.167 -59.667 -49.5 -92s-17 -63.833 -17 -94.5c0 -31.333 5.66699 -63.166 17 -95.499
s27.833 -63 49.5 -92s50.834 -52.5 87.501 -70.5s77.667 -27 123 -27s86.333 9.16699 123 27.5s65.834 41.833 87.501 70.5s38.167 58.834 49.5 90.501s17 62.834 17 93.501zM351.999 776.999l-42 75l223 128l44 -81z" />
    <glyph glyph-name="Ocircumflex" unicode="&#xd4;" horiz-adv-x="846" 
d="M808 368c0 -102.667 -37.167 -191.998 -111.5 -267.998s-165.5 -114 -273.5 -114c-108.667 0 -200 38.167 -274 114.5s-111 166.166 -111 269.499s36.667 193.166 110 269.499s165 114.5 275 114.5c108.667 0 200 -37.667 274 -113s111 -166.333 111 -273zM700 367.002
c0 34 -6.00098 67.4971 -18.001 100.497s-29 63.667 -51 92s-51.167 51.333 -87.5 69s-76.5 26.5 -120.5 26.5c-45.333 0 -86.333 -9.16699 -123 -27.5s-65.834 -42 -87.501 -71s-38.167 -59.667 -49.5 -92s-17 -63.833 -17 -94.5c0 -31.333 5.66699 -63.166 17 -95.499
s27.833 -63 49.5 -92s50.834 -52.5 87.501 -70.5s77.667 -27 123 -27s86.333 9.16699 123 27.5s65.834 41.833 87.501 70.5s38.167 58.834 49.5 90.501s17 62.834 17 93.501zM612.999 797.999h-119l-69 69l-72 -69h-119l139 135h100z" />
    <glyph glyph-name="Otilde" unicode="&#xd5;" horiz-adv-x="846" 
d="M808 368c0 -102.667 -37.167 -191.998 -111.5 -267.998s-165.5 -114 -273.5 -114c-108.667 0 -200 38.167 -274 114.5s-111 166.166 -111 269.499s36.667 193.166 110 269.499s165 114.5 275 114.5c108.667 0 200 -37.667 274 -113s111 -166.333 111 -273zM700 367.002
c0 34 -6.00098 67.4971 -18.001 100.497s-29 63.667 -51 92s-51.167 51.333 -87.5 69s-76.5 26.5 -120.5 26.5c-45.333 0 -86.333 -9.16699 -123 -27.5s-65.834 -42 -87.501 -71s-38.167 -59.667 -49.5 -92s-17 -63.833 -17 -94.5c0 -31.333 5.66699 -63.166 17 -95.499
s27.833 -63 49.5 -92s50.834 -52.5 87.501 -70.5s77.667 -27 123 -27s86.333 9.16699 123 27.5s65.834 41.833 87.501 70.5s38.167 58.834 49.5 90.501s17 62.834 17 93.501zM286.999 805.999l-47.001 65c40.667 26 75 39 103 39c7.33301 0 31 -4.5 71 -13.5
s63.333 -13.5 70 -13.5c15.333 0 42 9.33301 80 28l43 -63c-37.333 -30.667 -73.666 -46 -108.999 -46c-8 0 -31.833 4.33301 -71.5 13s-62.834 13 -69.501 13c-17.333 0 -40.666 -7.33301 -69.999 -22z" />
    <glyph glyph-name="Odieresis" unicode="&#xd6;" horiz-adv-x="846" 
d="M808 368c0 -102.667 -37.167 -191.998 -111.5 -267.998s-165.5 -114 -273.5 -114c-108.667 0 -200 38.167 -274 114.5s-111 166.166 -111 269.499s36.667 193.166 110 269.499s165 114.5 275 114.5c108.667 0 200 -37.667 274 -113s111 -166.333 111 -273zM700 367.002
c0 34 -6.00098 67.4971 -18.001 100.497s-29 63.667 -51 92s-51.167 51.333 -87.5 69s-76.5 26.5 -120.5 26.5c-45.333 0 -86.333 -9.16699 -123 -27.5s-65.834 -42 -87.501 -71s-38.167 -59.667 -49.5 -92s-17 -63.833 -17 -94.5c0 -31.333 5.66699 -63.166 17 -95.499
s27.833 -63 49.5 -92s50.834 -52.5 87.501 -70.5s77.667 -27 123 -27s86.333 9.16699 123 27.5s65.834 41.833 87.501 70.5s38.167 58.834 49.5 90.501s17 62.834 17 93.501zM448.999 923.999h104v-122h-104v122zM293.999 923.999h104v-122h-104v122z" />
    <glyph glyph-name="multiply" unicode="&#xd7;" horiz-adv-x="600" 
d="M228 253l-167 167l72 72l167 -167l167 167l72 -72l-168 -167l168 -167l-72 -72l-167 168l-167 -168l-72 72z" />
    <glyph glyph-name="Oslash" unicode="&#xd8;" horiz-adv-x="846" 
d="M240 31l-69.999 -96.001l-80 56l71 98c-82 78.667 -123 172.334 -123 281.001c0 104 36.667 194 110 270s164.666 114 273.999 114c70 0 132.667 -15.667 188 -47l69 95l83 -58l-71 -97c9.33301 -8 19 -18.333 29 -31s22.5 -30.667 37.5 -54s27.167 -52 36.5 -86
s14 -69.333 14 -106c0 -104 -37.167 -194 -111.5 -270s-165.5 -114 -273.5 -114c-68 0 -129 15 -183 45zM629.001 561.999l-328.004 -451c34.667 -17.333 75.334 -26 122.001 -26c44.667 0 85.334 9 122.001 27s65.834 41.167 87.501 69.5s38.334 58.833 50.001 91.5
s17.5 65 17.5 97c0 70.667 -23.667 134.667 -71 192zM221.997 172.999l328.998 452.001c-37.333 20 -79.666 30 -126.999 30c-46 0 -87.667 -9.33301 -125 -28s-66.666 -42.667 -87.999 -72s-37.5 -59.833 -48.5 -91.5s-16.5 -62.834 -16.5 -93.501
c0 -73.333 25.333 -139 76 -197z" />
    <glyph glyph-name="Ugrave" unicode="&#xd9;" horiz-adv-x="643" 
d="M569 740l0.00390625 -501c0 -78.667 -25 -142 -75 -190c-50.667 -42 -108.334 -63 -173.001 -63s-122.334 21 -173.001 63c-50 48 -75 111.333 -75 190v501h108v-498c0 -26 3.66699 -49 11 -69s16.166 -35.333 26.499 -46s22.333 -19.334 36 -26.001s25.667 -11 36 -13
s20.5 -3 30.5 -3s20.167 1 30.5 3s22.333 6.33301 36 13s25.667 15.334 36 26.001s19.166 26 26.499 46s11 43 11 69v498h108zM185.004 980l225 -123l-44 -80l-223 128z" />
    <glyph glyph-name="Uacute" unicode="&#xda;" horiz-adv-x="643" 
d="M569 740l0.00390625 -501c0 -78.667 -25 -142 -75 -190c-50.667 -42 -108.334 -63 -173.001 -63s-122.334 21 -173.001 63c-50 48 -75 111.333 -75 190v501h108v-498c0 -26 3.66699 -49 11 -69s16.166 -35.333 26.499 -46s22.333 -19.334 36 -26.001s25.667 -11 36 -13
s20.5 -3 30.5 -3s20.167 1 30.5 3s22.333 6.33301 36 13s25.667 15.334 36 26.001s19.166 26 26.499 46s11 43 11 69v498h108zM275.004 777l-42 75l223 128l44 -81z" />
    <glyph glyph-name="Ucircumflex" unicode="&#xdb;" horiz-adv-x="643" 
d="M569 740l0.00390625 -501c0 -78.667 -25 -142 -75 -190c-50.667 -42 -108.334 -63 -173.001 -63s-122.334 21 -173.001 63c-50 48 -75 111.333 -75 190v501h108v-498c0 -26 3.66699 -49 11 -69s16.166 -35.333 26.499 -46s22.333 -19.334 36 -26.001s25.667 -11 36 -13
s20.5 -3 30.5 -3s20.167 1 30.5 3s22.333 6.33301 36 13s25.667 15.334 36 26.001s19.166 26 26.499 46s11 43 11 69v498h108zM511.004 798h-119l-69 69l-72 -69h-119l139 135h100z" />
    <glyph glyph-name="Udieresis" unicode="&#xdc;" horiz-adv-x="643" 
d="M569 740l0.00390625 -501c0 -78.667 -25 -142 -75 -190c-50.667 -42 -108.334 -63 -173.001 -63s-122.334 21 -173.001 63c-50 48 -75 111.333 -75 190v501h108v-498c0 -26 3.66699 -49 11 -69s16.166 -35.333 26.499 -46s22.333 -19.334 36 -26.001s25.667 -11 36 -13
s20.5 -3 30.5 -3s20.167 1 30.5 3s22.333 6.33301 36 13s25.667 15.334 36 26.001s19.166 26 26.499 46s11 43 11 69v498h108zM347.004 924h104v-122h-104v122zM192.004 924h104v-122h-104v122z" />
    <glyph glyph-name="Yacute" unicode="&#xdd;" horiz-adv-x="593" 
d="M351 0h-108v267l-230 473h121l163 -347l162 347h120l-228 -473v-267zM250 777l-42 75l223 128l44 -81z" />
    <glyph glyph-name="Thorn" unicode="&#xde;" horiz-adv-x="559" 
d="M173 146v-146h-108v740h108v-146h106c86 0 151 -20.167 195 -60.5s66 -94.833 66 -163.5s-22 -123.167 -66 -163.5s-109 -60.5 -195 -60.5h-106zM173 495v-250h106c55.333 0 94.666 12.333 117.999 37s35 54 35 88s-11.667 63.333 -35 88s-62.666 37 -117.999 37h-106z
" />
    <glyph glyph-name="germandbls" unicode="&#xdf;" horiz-adv-x="640" 
d="M66 0v515.998c0 43.333 7.33301 81.333 22 114s33.5 57.5 56.5 74.5s46.167 29.5 69.5 37.5s46.333 12 69 12c60.667 0 112.667 -21.667 156 -65s65 -94.666 65 -153.999c0 -49.333 -19.333 -89.333 -58 -120c52 -12.667 91 -38 117 -76s39 -78 39 -120
c0 -66 -21.833 -121.333 -65.5 -166s-98.5 -67 -164.5 -67c-50 0 -92 12.333 -126 37c-18 12.667 -32.333 25.167 -43 37.5s-17.667 22.333 -21 30s-7 18.834 -11 33.501h-2v-124h-103zM170 515.998l-0.000976562 -322.001h84c6.66699 -39.333 23 -68.666 49 -87.999
c21.333 -16.667 45.666 -25 72.999 -25c36.667 0 66.167 13 88.5 39s33.5 55.667 33.5 89c0 6 -0.333008 12 -1 18s-3.66699 16 -9 30s-12.833 26 -22.5 36s-25 19.167 -46 27.5s-45.833 12.5 -74.5 12.5h-72v92c24 0.666992 44.667 4.83398 62 12.501s30 16 38 25
s14.167 19.833 18.5 32.5s6.83301 22 7.5 28s1 12 1 18c0 30 -10.333 57.167 -31 81.5s-48.667 36.5 -84 36.5c-21.333 0 -39.833 -4.33301 -55.5 -13s-27.167 -18.5 -34.5 -29.5s-13.166 -24.5 -17.499 -40.5s-6.66602 -27.833 -6.99902 -35.5s-0.5 -15.834 -0.5 -24.501z
" />
    <glyph glyph-name="agrave" unicode="&#xe0;" horiz-adv-x="693" 
d="M626 0h-104v86h-2c-19.333 -32.667 -45.666 -57.5 -78.999 -74.5s-69.666 -25.5 -108.999 -25.5c-89.333 0 -160.666 28.833 -213.999 86.5s-80 125.167 -80 202.5c0 34.667 6.16699 69 18.5 103s30.166 65.5 53.499 94.5s54.333 52.333 93 70s81.667 26.5 129 26.5
c39.333 0 75.666 -8 108.999 -24s59.666 -39 78.999 -69h2v78h104v-554zM524 276c0 58 -18.3311 105.499 -54.998 142.499s-82.334 55.5 -137.001 55.5c-59.333 0 -105.833 -20.667 -139.5 -62s-50.5 -86.666 -50.5 -135.999c0 -51.333 18.167 -96.666 54.5 -135.999
s81.166 -59 134.499 -59c54 0 99.667 19.167 137 57.5s56 84.166 56 137.499zM235.002 813.999l225 -123l-44 -80l-223 128z" />
    <glyph glyph-name="aacute" unicode="&#xe1;" horiz-adv-x="693" 
d="M626 0h-104v86h-2c-19.333 -32.667 -45.666 -57.5 -78.999 -74.5s-69.666 -25.5 -108.999 -25.5c-89.333 0 -160.666 28.833 -213.999 86.5s-80 125.167 -80 202.5c0 34.667 6.16699 69 18.5 103s30.166 65.5 53.499 94.5s54.333 52.333 93 70s81.667 26.5 129 26.5
c39.333 0 75.666 -8 108.999 -24s59.666 -39 78.999 -69h2v78h104v-554zM524 276c0 58 -18.3311 105.499 -54.998 142.499s-82.334 55.5 -137.001 55.5c-59.333 0 -105.833 -20.667 -139.5 -62s-50.5 -86.666 -50.5 -135.999c0 -51.333 18.167 -96.666 54.5 -135.999
s81.166 -59 134.499 -59c54 0 99.667 19.167 137 57.5s56 84.166 56 137.499zM275.002 610.999l-42 75l223 128l44 -81z" />
    <glyph glyph-name="acircumflex" unicode="&#xe2;" horiz-adv-x="693" 
d="M626 0h-104v86h-2c-19.333 -32.667 -45.666 -57.5 -78.999 -74.5s-69.666 -25.5 -108.999 -25.5c-89.333 0 -160.666 28.833 -213.999 86.5s-80 125.167 -80 202.5c0 34.667 6.16699 69 18.5 103s30.166 65.5 53.499 94.5s54.333 52.333 93 70s81.667 26.5 129 26.5
c39.333 0 75.666 -8 108.999 -24s59.666 -39 78.999 -69h2v78h104v-554zM524 276c0 58 -18.3311 105.499 -54.998 142.499s-82.334 55.5 -137.001 55.5c-59.333 0 -105.833 -20.667 -139.5 -62s-50.5 -86.666 -50.5 -135.999c0 -51.333 18.167 -96.666 54.5 -135.999
s81.166 -59 134.499 -59c54 0 99.667 19.167 137 57.5s56 84.166 56 137.499zM536.002 631.999h-119l-69 69l-72 -69h-119l139 135h100z" />
    <glyph glyph-name="atilde" unicode="&#xe3;" horiz-adv-x="693" 
d="M626 0h-104v86h-2c-19.333 -32.667 -45.666 -57.5 -78.999 -74.5s-69.666 -25.5 -108.999 -25.5c-89.333 0 -160.666 28.833 -213.999 86.5s-80 125.167 -80 202.5c0 34.667 6.16699 69 18.5 103s30.166 65.5 53.499 94.5s54.333 52.333 93 70s81.667 26.5 129 26.5
c39.333 0 75.666 -8 108.999 -24s59.666 -39 78.999 -69h2v78h104v-554zM524 276c0 58 -18.3311 105.499 -54.998 142.499s-82.334 55.5 -137.001 55.5c-59.333 0 -105.833 -20.667 -139.5 -62s-50.5 -86.666 -50.5 -135.999c0 -51.333 18.167 -96.666 54.5 -135.999
s81.166 -59 134.499 -59c54 0 99.667 19.167 137 57.5s56 84.166 56 137.499zM210.002 639.999l-47.001 65c40.667 26 75 39 103 39c7.33301 0 31 -4.5 71 -13.5s63.333 -13.5 70 -13.5c15.333 0 42 9.33301 80 28l43 -63c-37.333 -30.667 -73.666 -46 -108.999 -46
c-8 0 -31.833 4.33301 -71.5 13s-62.834 13 -69.501 13c-17.333 0 -40.666 -7.33301 -69.999 -22z" />
    <glyph glyph-name="adieresis" unicode="&#xe4;" horiz-adv-x="693" 
d="M626 0h-104v86h-2c-19.333 -32.667 -45.666 -57.5 -78.999 -74.5s-69.666 -25.5 -108.999 -25.5c-89.333 0 -160.666 28.833 -213.999 86.5s-80 125.167 -80 202.5c0 34.667 6.16699 69 18.5 103s30.166 65.5 53.499 94.5s54.333 52.333 93 70s81.667 26.5 129 26.5
c39.333 0 75.666 -8 108.999 -24s59.666 -39 78.999 -69h2v78h104v-554zM524 276c0 58 -18.3311 105.499 -54.998 142.499s-82.334 55.5 -137.001 55.5c-59.333 0 -105.833 -20.667 -139.5 -62s-50.5 -86.666 -50.5 -135.999c0 -51.333 18.167 -96.666 54.5 -135.999
s81.166 -59 134.499 -59c54 0 99.667 19.167 137 57.5s56 84.166 56 137.499zM372.002 757.999h104v-122h-104v122zM217.002 757.999h104v-122h-104v122z" />
    <glyph glyph-name="aring" unicode="&#xe5;" horiz-adv-x="693" 
d="M626 0h-104v86h-2c-19.333 -32.667 -45.666 -57.5 -78.999 -74.5s-69.666 -25.5 -108.999 -25.5c-89.333 0 -160.666 28.833 -213.999 86.5s-80 125.167 -80 202.5c0 34.667 6.16699 69 18.5 103s30.166 65.5 53.499 94.5s54.333 52.333 93 70s81.667 26.5 129 26.5
c39.333 0 75.666 -8 108.999 -24s59.666 -39 78.999 -69h2v78h104v-554zM524 276c0 58 -18.3311 105.499 -54.998 142.499s-82.334 55.5 -137.001 55.5c-59.333 0 -105.833 -20.667 -139.5 -62s-50.5 -86.666 -50.5 -135.999c0 -51.333 18.167 -96.666 54.5 -135.999
s81.166 -59 134.499 -59c54 0 99.667 19.167 137 57.5s56 84.166 56 137.499zM457.002 719.999c0 -30 -10.833 -55.833 -32.5 -77.5s-47.834 -32.5 -78.501 -32.5c-30 0 -55.833 10.833 -77.5 32.5s-32.5 47.5 -32.5 77.5c0 30.667 10.833 56.834 32.5 78.501
s47.5 32.5 77.5 32.5c30.667 0 56.834 -10.833 78.501 -32.5s32.5 -47.834 32.5 -78.501zM398.002 719.999c0 14.667 -5 27 -15 37s-22.333 15 -37 15c-14 0 -26 -5 -36 -15s-15 -22.333 -15 -37c0 -14 5 -26 15 -36s22 -15 36 -15c14.667 0 27 5 37 15s15 22 15 36z" />
    <glyph glyph-name="ae" unicode="&#xe6;" horiz-adv-x="1131" 
d="M1090 233h-461.998c7.33301 -41.333 27.666 -77 60.999 -107s73.333 -45 120 -45c30 0 60 7.66699 90 23s53.333 39.333 70 72h107c-12.667 -36 -30.5 -67.167 -53.5 -93.5s-47.5 -46 -73.5 -59s-50.5 -22.5 -73.5 -28.5s-44.5 -9 -64.5 -9
c-74.667 0.666992 -136.334 27 -185.001 79h-2v-65h-95v65c-16 -14.667 -29.833 -26.167 -41.5 -34.5s-31.667 -17.833 -60 -28.5s-59.166 -16 -92.499 -16c-88.667 0 -160.334 29.5 -215.001 88.5s-82 128.167 -82 207.5c0 80.667 28 148.667 84 204s125.667 83 209 83
c79.333 0 144.666 -26.667 195.999 -80h2v65h95v-65h2c16.667 21.333 38.334 38.5 65.001 51.5s49.5 21 68.5 24s37.167 4.5 54.5 4.5c78 0 144 -29 198 -87s81 -125.333 81 -202c0 -3.33301 -1 -19 -3 -47zM524.002 279c0 52.667 -17.667 98.333 -53 137
s-82.333 58 -141 58c-57.333 0 -103 -19.167 -137 -57.5s-51 -83.5 -51 -135.5c0 -54 17 -100.833 51 -140.5s79.667 -59.5 137 -59.5c56.667 0 103.167 19.5 139.5 58.5s54.5 85.5 54.5 139.5zM628.002 304.999l361.003 0.000976562
c-2.66699 39.333 -14.334 72.333 -35.001 99s-43.334 45 -68.001 55s-50 15 -76 15c-18.667 0 -37.5 -3 -56.5 -9s-37.667 -15.333 -56 -28s-33.833 -30.334 -46.5 -53.001s-20.334 -49 -23.001 -79z" />
    <glyph glyph-name="ccedilla" unicode="&#xe7;" horiz-adv-x="627" 
d="M222 -164l52.9971 -0.000976562c7.33301 -20.667 21 -31 41 -31c12 0 22 3.66699 30 11s12 17.333 12 30c0 12 -4.16699 21.5 -12.5 28.5s-18.166 10.5 -29.499 10.5c-12 0 -23.333 -4.66699 -34 -14l-34 32l29 87c-73.333 10.667 -131.5 44 -174.5 100
s-64.5 118.667 -64.5 188c0 78.667 26.333 146.834 79 204.501s121.334 86.5 206.001 86.5c71.333 0 131.333 -21 180 -63s79.334 -87.333 92.001 -136h-115c-34 69.333 -86 104 -156 104c-42 0 -77.333 -10.833 -106 -32.5s-48.5 -46.667 -59.5 -75
s-16.5 -57.833 -16.5 -88.5c0 -52 16 -97.833 48 -137.5s76 -59.5 132 -59.5c37.333 0 69.333 9.33301 96 28s47 43.334 61 74.001h116c-20 -60 -54.167 -107.333 -102.5 -142s-103.166 -52.667 -164.499 -54l-17 -55c2 0 5.33301 0.166992 10 0.5s8 0.5 10 0.5
c22 0 41.167 -7.83301 57.5 -23.5s24.5 -35.834 24.5 -60.501c0 -25.333 -8.83301 -47.5 -26.5 -66.5s-41.5 -28.5 -71.5 -28.5c-22 0 -42.333 7 -61 21s-29.334 34.333 -32.001 61z" />
    <glyph glyph-name="egrave" unicode="&#xe8;" horiz-adv-x="642" 
d="M602 232l-458.999 0.00195312c12 -50 35.5 -87.667 70.5 -113s72.167 -38 111.5 -38c36 0 68 9 96 27s48.667 40 62 66h104c-16.667 -44.667 -41.334 -81.834 -74.001 -111.501s-64.834 -49.834 -96.501 -60.501s-63.5 -16 -95.5 -16c-78 0 -144.5 28.833 -199.5 86.5
s-82.5 126.167 -82.5 205.5c0 82 27.667 151 83 207s122.333 84 201 84c76 0 141.833 -27.333 197.5 -82s83.834 -122 84.501 -202c0 -21.333 -1 -39 -3 -53zM143.001 312.002h358c-2.66699 42 -21.167 79.5 -55.5 112.5s-75.5 49.5 -123.5 49.5s-89.167 -16.5 -123.5 -49.5
s-52.833 -70.5 -55.5 -112.5zM210.001 814.002l225 -123l-44 -80l-223 128z" />
    <glyph glyph-name="eacute" unicode="&#xe9;" horiz-adv-x="642" 
d="M602 232l-458.999 0.00195312c12 -50 35.5 -87.667 70.5 -113s72.167 -38 111.5 -38c36 0 68 9 96 27s48.667 40 62 66h104c-16.667 -44.667 -41.334 -81.834 -74.001 -111.501s-64.834 -49.834 -96.501 -60.501s-63.5 -16 -95.5 -16c-78 0 -144.5 28.833 -199.5 86.5
s-82.5 126.167 -82.5 205.5c0 82 27.667 151 83 207s122.333 84 201 84c76 0 141.833 -27.333 197.5 -82s83.834 -122 84.501 -202c0 -21.333 -1 -39 -3 -53zM143.001 312.002h358c-2.66699 42 -21.167 79.5 -55.5 112.5s-75.5 49.5 -123.5 49.5s-89.167 -16.5 -123.5 -49.5
s-52.833 -70.5 -55.5 -112.5zM250.001 611.002l-42 75l223 128l44 -81z" />
    <glyph glyph-name="ecircumflex" unicode="&#xea;" horiz-adv-x="642" 
d="M602 232l-458.999 0.00195312c12 -50 35.5 -87.667 70.5 -113s72.167 -38 111.5 -38c36 0 68 9 96 27s48.667 40 62 66h104c-16.667 -44.667 -41.334 -81.834 -74.001 -111.501s-64.834 -49.834 -96.501 -60.501s-63.5 -16 -95.5 -16c-78 0 -144.5 28.833 -199.5 86.5
s-82.5 126.167 -82.5 205.5c0 82 27.667 151 83 207s122.333 84 201 84c76 0 141.833 -27.333 197.5 -82s83.834 -122 84.501 -202c0 -21.333 -1 -39 -3 -53zM143.001 312.002h358c-2.66699 42 -21.167 79.5 -55.5 112.5s-75.5 49.5 -123.5 49.5s-89.167 -16.5 -123.5 -49.5
s-52.833 -70.5 -55.5 -112.5zM511.001 632.002h-119l-69 69l-72 -69h-119l139 135h100z" />
    <glyph glyph-name="edieresis" unicode="&#xeb;" horiz-adv-x="642" 
d="M602 232l-458.999 0.00195312c12 -50 35.5 -87.667 70.5 -113s72.167 -38 111.5 -38c36 0 68 9 96 27s48.667 40 62 66h104c-16.667 -44.667 -41.334 -81.834 -74.001 -111.501s-64.834 -49.834 -96.501 -60.501s-63.5 -16 -95.5 -16c-78 0 -144.5 28.833 -199.5 86.5
s-82.5 126.167 -82.5 205.5c0 82 27.667 151 83 207s122.333 84 201 84c76 0 141.833 -27.333 197.5 -82s83.834 -122 84.501 -202c0 -21.333 -1 -39 -3 -53zM143.001 312.002h358c-2.66699 42 -21.167 79.5 -55.5 112.5s-75.5 49.5 -123.5 49.5s-89.167 -16.5 -123.5 -49.5
s-52.833 -70.5 -55.5 -112.5zM347.001 758.002h104v-122h-104v122zM192.001 758.002h104v-122h-104v122z" />
    <glyph glyph-name="igrave" unicode="&#xec;" horiz-adv-x="238" 
d="M171 554v-554h-104v554h104zM-32 814l225 -123l-44 -80l-223 128z" />
    <glyph glyph-name="iacute" unicode="&#xed;" horiz-adv-x="238" 
d="M171 554v-554h-104v554h104zM88 611l-42 75l223 128l44 -81z" />
    <glyph glyph-name="icircumflex" unicode="&#xee;" horiz-adv-x="238" 
d="M171 554v-554h-104v554h104zM309 632h-119l-69 69l-72 -69h-119l139 135h100z" />
    <glyph glyph-name="idieresis" unicode="&#xef;" horiz-adv-x="238" 
d="M171 554v-554h-104v554h104zM145 758h104v-122h-104v122zM-10 758h104v-122h-104v122z" />
    <glyph glyph-name="eth" unicode="&#xf0;" horiz-adv-x="675" 
d="M336 474c-56.667 0 -103.167 -20.333 -139.5 -61s-54.5 -85.667 -54.5 -135c0 -50 18.333 -95.333 55 -136s83.667 -61 141 -61c58 0 104.833 20.167 140.5 60.5s53.5 86.833 53.5 139.5c0 50 -17.333 94.667 -52 134s-82.667 59 -144 59zM542 702l-108.002 -36.001
c66 -46 116.167 -102.167 150.5 -168.5s51.5 -133.833 51.5 -202.5c0 -89.333 -28.667 -163.166 -86 -221.499s-128.333 -87.5 -213 -87.5c-46.667 0 -89.5 9.16699 -128.5 27.5s-70.667 42 -95 71s-43 60.5 -56 94.5s-19.5 67.667 -19.5 101
c0 79.333 29.167 147.333 87.5 204s126.833 85 205.5 85c36 0 69.667 -9.33301 101 -28l2 2c-26 30.667 -63 59.667 -111 87l-167 -56l-66 51l146 49c-17.333 7.33301 -53.666 21 -108.999 41l120 39c32.667 -8 68.334 -21.667 107.001 -41l124 41z" />
    <glyph glyph-name="ntilde" unicode="&#xf1;" horiz-adv-x="624" 
d="M558 0h-104.001v301c0 115.333 -46 173 -138 173c-44.667 0 -80.167 -15 -106.5 -45s-39.5 -72.333 -39.5 -127v-302h-104v554h97v-59h2c37.333 49.333 91.333 74 162 74c88 0 153.333 -33 196 -99c22.667 -36.667 34.334 -84 35.001 -142v-328zM175.999 640l-47.001 65
c40.667 26 75 39 103 39c7.33301 0 31 -4.5 71 -13.5s63.333 -13.5 70 -13.5c15.333 0 42 9.33301 80 28l43 -63c-37.333 -30.667 -73.666 -46 -108.999 -46c-8 0 -31.833 4.33301 -71.5 13s-62.834 13 -69.501 13c-17.333 0 -40.666 -7.33301 -69.999 -22z" />
    <glyph glyph-name="ograve" unicode="&#xf2;" horiz-adv-x="675" 
d="M636 279c0 -46.667 -11.5 -91.999 -34.5 -135.999s-58 -81.167 -105 -111.5s-100.167 -45.5 -159.5 -45.5c-88 0 -159.833 30.333 -215.5 91s-83.5 128.667 -83.5 204c0 77.333 28.833 144.666 86.5 201.999s128.5 86 212.5 86c83.333 0 154 -28.5 212 -85.5
s87 -125.167 87 -204.5zM532 279.001c0 51.333 -18.3301 96.668 -54.9971 136.001s-83.334 59 -140.001 59s-103.334 -19.667 -140.001 -59s-55 -85 -55 -137s18.5 -97.833 55.5 -137.5s83.5 -59.5 139.5 -59.5c55.333 0 101.666 19.667 138.999 59s56 85.666 56 138.999z
M226.003 814.003l225 -123l-44 -80l-223 128z" />
    <glyph glyph-name="oacute" unicode="&#xf3;" horiz-adv-x="675" 
d="M636 279c0 -46.667 -11.5 -91.999 -34.5 -135.999s-58 -81.167 -105 -111.5s-100.167 -45.5 -159.5 -45.5c-88 0 -159.833 30.333 -215.5 91s-83.5 128.667 -83.5 204c0 77.333 28.833 144.666 86.5 201.999s128.5 86 212.5 86c83.333 0 154 -28.5 212 -85.5
s87 -125.167 87 -204.5zM532 279.001c0 51.333 -18.3301 96.668 -54.9971 136.001s-83.334 59 -140.001 59s-103.334 -19.667 -140.001 -59s-55 -85 -55 -137s18.5 -97.833 55.5 -137.5s83.5 -59.5 139.5 -59.5c55.333 0 101.666 19.667 138.999 59s56 85.666 56 138.999z
M266.003 611.003l-42 75l223 128l44 -81z" />
    <glyph glyph-name="ocircumflex" unicode="&#xf4;" horiz-adv-x="675" 
d="M636 279c0 -46.667 -11.5 -91.999 -34.5 -135.999s-58 -81.167 -105 -111.5s-100.167 -45.5 -159.5 -45.5c-88 0 -159.833 30.333 -215.5 91s-83.5 128.667 -83.5 204c0 77.333 28.833 144.666 86.5 201.999s128.5 86 212.5 86c83.333 0 154 -28.5 212 -85.5
s87 -125.167 87 -204.5zM532 279.001c0 51.333 -18.3301 96.668 -54.9971 136.001s-83.334 59 -140.001 59s-103.334 -19.667 -140.001 -59s-55 -85 -55 -137s18.5 -97.833 55.5 -137.5s83.5 -59.5 139.5 -59.5c55.333 0 101.666 19.667 138.999 59s56 85.666 56 138.999z
M527.003 632.003h-119l-69 69l-72 -69h-119l139 135h100z" />
    <glyph glyph-name="otilde" unicode="&#xf5;" horiz-adv-x="675" 
d="M636 279c0 -46.667 -11.5 -91.999 -34.5 -135.999s-58 -81.167 -105 -111.5s-100.167 -45.5 -159.5 -45.5c-88 0 -159.833 30.333 -215.5 91s-83.5 128.667 -83.5 204c0 77.333 28.833 144.666 86.5 201.999s128.5 86 212.5 86c83.333 0 154 -28.5 212 -85.5
s87 -125.167 87 -204.5zM532 279.001c0 51.333 -18.3301 96.668 -54.9971 136.001s-83.334 59 -140.001 59s-103.334 -19.667 -140.001 -59s-55 -85 -55 -137s18.5 -97.833 55.5 -137.5s83.5 -59.5 139.5 -59.5c55.333 0 101.666 19.667 138.999 59s56 85.666 56 138.999z
M201.003 640.003l-47.001 65c40.667 26 75 39 103 39c7.33301 0 31 -4.5 71 -13.5s63.333 -13.5 70 -13.5c15.333 0 42 9.33301 80 28l43 -63c-37.333 -30.667 -73.666 -46 -108.999 -46c-8 0 -31.833 4.33301 -71.5 13s-62.834 13 -69.501 13
c-17.333 0 -40.666 -7.33301 -69.999 -22z" />
    <glyph glyph-name="odieresis" unicode="&#xf6;" horiz-adv-x="675" 
d="M636 279c0 -46.667 -11.5 -91.999 -34.5 -135.999s-58 -81.167 -105 -111.5s-100.167 -45.5 -159.5 -45.5c-88 0 -159.833 30.333 -215.5 91s-83.5 128.667 -83.5 204c0 77.333 28.833 144.666 86.5 201.999s128.5 86 212.5 86c83.333 0 154 -28.5 212 -85.5
s87 -125.167 87 -204.5zM532 279.001c0 51.333 -18.3301 96.668 -54.9971 136.001s-83.334 59 -140.001 59s-103.334 -19.667 -140.001 -59s-55 -85 -55 -137s18.5 -97.833 55.5 -137.5s83.5 -59.5 139.5 -59.5c55.333 0 101.666 19.667 138.999 59s56 85.666 56 138.999z
M363.003 758.003h104v-122h-104v122zM208.003 758.003h104v-122h-104v122z" />
    <glyph glyph-name="divide" unicode="&#xf7;" horiz-adv-x="600" 
d="M552 201h-504v104h504v-104zM352 398h-104v108h104v-108zM352 0h-104v108h104v-108z" />
    <glyph glyph-name="oslash" unicode="&#xf8;" horiz-adv-x="675" 
d="M218 10l-52 -78.999l-79 53l51 77c-66.667 61.333 -100 134.666 -100 219.999c0 77.333 28.833 144.666 86.5 201.999s128.5 86 212.5 86c44 0 83.667 -8 119 -24l51 78l80 -53l-50 -76c32.667 -28 57.334 -61 74.001 -99s25 -76.333 25 -115
c0 -35.333 -7 -70.333 -21 -105s-33.5 -66.167 -58.5 -94.5s-56.667 -51.166 -95 -68.499s-79.833 -26 -124.5 -26c-42.667 0 -82.334 8 -119.001 24zM482 410.001l-210 -318c22 -7.33301 43.667 -11 65 -11c56 0 102.5 19.833 139.5 59.5s55.5 85.5 55.5 137.5
c0 50.667 -16.667 94.667 -50 132zM193 145.001l209 317.999c-22 7.33301 -43.667 11 -65 11c-56 0 -102.5 -19.667 -139.5 -59s-55.5 -85 -55.5 -137c0 -49.333 17 -93.666 51 -132.999z" />
    <glyph glyph-name="ugrave" unicode="&#xf9;" horiz-adv-x="624" 
d="M66 554h103.999v-300c0 -64 12.333 -108.833 37 -134.5s58.334 -38.5 101.001 -38.5c44.667 0 80 14.667 106 44s39 73.333 39 132v297h104v-554h-95v60h-2c-14 -23.333 -35.667 -41.5 -65 -54.5s-62 -19.5 -98 -19.5c-63.333 0 -116 18.333 -158 55
c-48.667 42 -73 113 -73 213v300zM175.999 814l225 -123l-44 -80l-223 128z" />
    <glyph glyph-name="uacute" unicode="&#xfa;" horiz-adv-x="624" 
d="M66 554h103.999v-300c0 -64 12.333 -108.833 37 -134.5s58.334 -38.5 101.001 -38.5c44.667 0 80 14.667 106 44s39 73.333 39 132v297h104v-554h-95v60h-2c-14 -23.333 -35.667 -41.5 -65 -54.5s-62 -19.5 -98 -19.5c-63.333 0 -116 18.333 -158 55
c-48.667 42 -73 113 -73 213v300zM265.999 611l-42 75l223 128l44 -81z" />
    <glyph glyph-name="ucircumflex" unicode="&#xfb;" horiz-adv-x="624" 
d="M66 554h103.999v-300c0 -64 12.333 -108.833 37 -134.5s58.334 -38.5 101.001 -38.5c44.667 0 80 14.667 106 44s39 73.333 39 132v297h104v-554h-95v60h-2c-14 -23.333 -35.667 -41.5 -65 -54.5s-62 -19.5 -98 -19.5c-63.333 0 -116 18.333 -158 55
c-48.667 42 -73 113 -73 213v300zM501.999 632h-119l-69 69l-72 -69h-119l139 135h100z" />
    <glyph glyph-name="udieresis" unicode="&#xfc;" horiz-adv-x="624" 
d="M66 554h103.999v-300c0 -64 12.333 -108.833 37 -134.5s58.334 -38.5 101.001 -38.5c44.667 0 80 14.667 106 44s39 73.333 39 132v297h104v-554h-95v60h-2c-14 -23.333 -35.667 -41.5 -65 -54.5s-62 -19.5 -98 -19.5c-63.333 0 -116 18.333 -158 55
c-48.667 42 -73 113 -73 213v300zM337.999 758h104v-122h-104v122zM182.999 758h104v-122h-104v122z" />
    <glyph glyph-name="yacute" unicode="&#xfd;" horiz-adv-x="574" 
d="M564 554l-306 -739h-108l81 196l-221 543h112l163 -430l167 430h112zM241 611l-42 75l223 128l44 -81z" />
    <glyph glyph-name="thorn" unicode="&#xfe;" horiz-adv-x="686" 
d="M67 -185l-0.000976562 925h104v-263h2c19.333 30.667 46 53.667 80 69s70 23 108 23c88.667 0 158.667 -29.833 210 -89.5s77 -129.5 77 -209.5c0 -74.667 -25.833 -140.667 -77.5 -198s-119.167 -86 -202.5 -86c-51.333 0 -93.166 9.5 -125.499 28.5
s-55.5 40.833 -69.5 65.5h-2v-265h-104zM543.999 276c0 52 -18 97.999 -54 137.999s-81.333 60 -136 60c-53.333 0 -97.5 -19.5 -132.5 -58.5s-52.5 -84.833 -52.5 -137.5c0 -56 18.167 -102.833 54.5 -140.5s80.833 -56.5 133.5 -56.5c50.667 0 94.5 18.333 131.5 55
s55.5 83.334 55.5 140.001z" />
    <glyph glyph-name="ydieresis" unicode="&#xff;" horiz-adv-x="574" 
d="M564 554l-306 -739h-108l81 196l-221 543h112l163 -430l167 430h112zM313 758h104v-122h-104v122zM158 758h104v-122h-104v122z" />
    <glyph glyph-name="dotlessi" unicode="&#x131;" horiz-adv-x="238" 
d="M171 554v-554h-104v554h104z" />
    <glyph glyph-name="Lslash" unicode="&#x141;" horiz-adv-x="444" 
d="M79 301l-75 -51v111l75 51v328h108v-254l139 95v-111l-139 -95v-276h257v-99h-365v301z" />
    <glyph glyph-name="lslash" unicode="&#x142;" horiz-adv-x="284" 
d="M273 437l-79 -53v-6v-378h-104v314l-69 -46v99l69 46v327h104v-257l79 53v-99z" />
    <glyph glyph-name="OE" unicode="&#x152;" horiz-adv-x="1094" 
d="M694 740h353.998v-99h-246v-218h246v-99h-246v-225h246v-99h-354v106h-2c-19.333 -28 -43.166 -51 -71.499 -69s-57.333 -30.167 -87 -36.5s-51.834 -10.333 -66.501 -12s-29 -2.5 -43 -2.5c-60 0 -115 11 -165 33s-90.833 51.167 -122.5 87.5s-56 76.833 -73 121.5
s-25.5 90.667 -25.5 138c0 45.333 8.33301 90.333 25 135s40.334 86.167 71.001 124.5s71.5 69.333 122.5 93s107.5 35.5 169.5 35.5c50.667 0 100.834 -10 150.501 -30s88.167 -50.667 115.5 -92h2v108zM420.998 85c82.667 0 149.167 27.833 199.5 83.5
s75.5 121.167 75.5 196.5c0 74.667 -24.833 141.667 -74.5 201s-116.167 89 -199.5 89c-57.333 0 -107.5 -15 -150.5 -45s-74.667 -66.5 -95 -109.5s-30.5 -88.167 -30.5 -135.5c0 -75.333 25.167 -140.833 75.5 -196.5s116.833 -83.5 199.5 -83.5z" />
    <glyph glyph-name="oe" unicode="&#x153;" horiz-adv-x="1144" 
d="M1105 233l-468.999 0.999023c7.33301 -39.333 28.166 -74.666 62.499 -105.999s74.833 -47 121.5 -47c39.333 0 73.166 9 101.499 27s49.833 40.667 64.5 68h105c-14 -35.333 -32.333 -65.833 -55 -91.5s-44.167 -44.667 -64.5 -57s-42.666 -21.833 -66.999 -28.5
s-42 -10.5 -53 -11.5s-21.5 -1.5 -31.5 -1.5c-41.333 0 -83.5 10.333 -126.5 31s-78.833 55.334 -107.5 104.001c-21.333 -35.333 -53 -66.666 -95 -93.999s-92 -41 -150 -41c-45.333 0 -87.666 8.83301 -126.999 26.5s-71.5 40.667 -96.5 69s-44.5 59.666 -58.5 93.999
s-21 68.833 -21 103.5c0 76.667 28.167 144.167 84.5 202.5s126.5 87.5 210.5 87.5c36.667 0 70.5 -5 101.5 -15s56.667 -23 77 -39s35.666 -29.667 45.999 -41s19.5 -23 27.5 -35c51.333 86.667 129.333 130 234 130c80 0 148 -27.333 204 -82s84 -124.334 84 -209.001
c0 -14 -0.666992 -29 -2 -45zM531.001 274.999c0 58 -18.8311 105.667 -56.498 143s-84.5 56 -140.5 56c-52.667 0 -97.834 -19.167 -135.501 -57.5s-56.5 -84.166 -56.5 -137.499c0 -52.667 18.667 -98.834 56 -138.501s82.666 -59.5 135.999 -59.5s99.5 18.5 138.5 55.5
s58.5 83.167 58.5 138.5zM636.003 304.999h367c-6 59.333 -27 102.333 -63 129s-76 39.667 -120 39c-43.333 0.666992 -82.833 -12.5 -118.5 -39.5s-57.5 -69.833 -65.5 -128.5z" />
    <glyph glyph-name="Scaron" unicode="&#x160;" horiz-adv-x="499" 
d="M18 219l107.993 0.00488281c0 -7.33301 0.666992 -15.333 2 -24s4.33301 -19.834 9 -33.501s11 -25.834 19 -36.501s19.833 -20 35.5 -28s33.834 -12 54.501 -12c34.667 0 63.167 11.333 85.5 34s33.5 53 33.5 91c0 10 -1.16699 19.5 -3.5 28.5
s-4.66602 16.5 -6.99902 22.5s-7 12.167 -14 18.5s-12 11.166 -15 14.499s-9.66699 7.5 -20 12.5s-16.666 8 -18.999 9s-9.5 3.83301 -21.5 8.5s-18.333 7 -19 7c-50 19.333 -84.5 34 -103.5 44s-36.833 23 -53.5 39c-33.333 32.667 -50 79 -50 139
c0 49.333 18.333 95.166 55 137.499s87.334 63.5 152.001 63.5c62 0 112.833 -18.833 152.5 -56.5s59.5 -87.5 59.5 -149.5h-108c0 37.333 -10.667 64.5 -32 81.5s-45.333 25.5 -72 25.5c-30 0 -54 -10.833 -72 -32.5s-27 -44.5 -27 -68.5
c0 -6.66699 0.666992 -13.167 2 -19.5s3 -12 5 -17s4.83301 -9.83301 8.5 -14.5l9.5 -12c2.66699 -3.33301 6.83398 -6.83301 12.501 -10.5l12.5 -8c2.66699 -1.66699 7.16699 -3.83398 13.5 -6.50098s10.5 -4.5 12.5 -5.5s6.16699 -2.66699 12.5 -5s9.83301 -3.5 10.5 -3.5
l31.5 -11.5c15.667 -5.66699 27.334 -10 35.001 -13s18.834 -7.66699 33.501 -14s25.834 -12.5 33.501 -18.5l29 -22.5c11.667 -9 20.667 -18.667 27 -29s12.666 -22 18.999 -35s11 -27.833 14 -44.5s4.5 -34.667 4.5 -54c0 -65.333 -21 -119 -63 -161s-96.667 -63 -164 -63
c-26.667 0 -53 4.5 -79 13.5s-50.333 22.5 -73 40.5s-41 42.5 -55 73.5s-21 66.167 -21 105.5zM59.9932 940.005h114l74 -76l77 76h114l-139 -142h-100z" />
    <glyph glyph-name="scaron" unicode="&#x161;" horiz-adv-x="424" 
d="M389 407l-104.001 0.000976562c-6 44.667 -29.667 67 -71 67c-19.333 0 -35 -5.5 -47 -16.5s-18 -25.167 -18 -42.5c0 -14.667 4.5 -26.834 13.5 -36.501s18.333 -16.5 28 -20.5s24.5 -9 44.5 -15l23 -7.5c5.33301 -1.66699 14.833 -5.33398 28.5 -11.001
s24.667 -11.167 33 -16.5s18.333 -13 30 -23s20.834 -20.333 27.501 -31s12.5 -24 17.5 -40s7.5 -33 7.5 -51c0 -50.667 -16.667 -92.834 -50 -126.501s-78.666 -50.5 -135.999 -50.5c-19.333 0 -39.5 3.33301 -60.5 10s-42 16.834 -63 30.501s-38.333 34 -52 61
s-20.5 58.5 -20.5 94.5h104c2 -31.333 11 -56 27 -74s38.333 -27 67 -27c24 0 43.333 6.83301 58 20.5s22 32.167 22 55.5c0 22 -7.83301 38.667 -23.5 50s-40.167 23 -73.5 35c-2.66699 0.666992 -6.33398 2 -11.001 4c-21.333 7.33301 -37.833 13.833 -49.5 19.5
s-26.334 14.834 -44.001 27.501s-30.667 28.667 -39 48s-12.5 42 -12.5 68c0 42.667 16.333 80 49 112s74.334 48 125.001 48c24 0 48 -4.66699 72 -14s46.167 -26.833 66.5 -52.5s30.833 -57.5 31.5 -95.5zM22.999 774.001h114l74 -76l77 76h114l-139 -142h-100z" />
    <glyph glyph-name="Ydieresis" unicode="&#x178;" horiz-adv-x="593" 
d="M351 0h-108v267l-230 473h121l163 -347l162 347h120l-228 -473v-267zM322 924h104v-122h-104v122zM167 924h104v-122h-104v122z" />
    <glyph glyph-name="Zcaron" unicode="&#x17d;" horiz-adv-x="462" 
d="M459 0h-455v99l321 542h-304v99h425v-99l-319 -542h332v-99zM62 940h114l74 -76l77 76h114l-139 -142h-100z" />
    <glyph glyph-name="zcaron" unicode="&#x17e;" horiz-adv-x="407" 
d="M29 554h354v-101l-251 -358h272v-95h-401v81l266 378h-240v95zM34 774h114l74 -76l77 76h114l-139 -142h-100z" />
    <glyph glyph-name="florin" unicode="&#x192;" 
d="M384 590l94.999 -0.000976562l-15 -95h-97l-71 -391c-4.66699 -24.667 -8.5 -43.834 -11.5 -57.501s-8.33301 -32.667 -16 -57s-16.667 -43.5 -27 -57.5s-23.333 -28.667 -39 -44s-35.167 -26.666 -58.5 -33.999s-49.666 -11 -78.999 -11c-17.333 0 -34 2 -50 6l15 87h11
c29.333 0 52.833 3 70.5 9s32.5 17.833 44.5 35.5s21.333 38.167 28 61.5s14 56.666 22 99.999l63 353h-96l16 95h97l6 33c12 66 37.333 116.833 76 152.5s83.334 53.5 134.001 53.5c1.33301 0 7.33301 -0.666992 18 -2l-16 -90
c-16.667 -0.666992 -31.334 -3.66699 -44.001 -9s-22.667 -11.666 -30 -18.999s-14 -17.166 -20 -29.499s-10.167 -22.5 -12.5 -30.5s-4.83301 -18.667 -7.5 -32z" />
    <glyph glyph-name="circumflex" unicode="&#x2c6;" 
d="M467 632h-119l-69 69l-72 -69h-119l139 135h100z" />
    <glyph glyph-name="caron" unicode="&#x2c7;" 
d="M88 774h114l74 -76l77 76h114l-139 -142h-100z" />
    <glyph glyph-name="breve" unicode="&#x2d8;" 
d="M88 756l78.999 -0.000976562c16 -21.333 36.667 -35.666 62 -42.999c14 -4 30 -6 48 -6c50.667 0 87.667 16.333 111 49h79c-27.333 -80 -90.666 -120 -189.999 -120c-98 0 -161 40 -189 120z" />
    <glyph glyph-name="dotaccent" unicode="&#x2d9;" 
d="M329 758v-122h-104v122h104z" />
    <glyph glyph-name="ring" unicode="&#x2da;" 
d="M388 720c0 -30 -10.833 -55.833 -32.5 -77.5s-47.834 -32.5 -78.501 -32.5c-30 0 -55.833 10.833 -77.5 32.5s-32.5 47.5 -32.5 77.5c0 30.667 10.833 56.834 32.5 78.501s47.5 32.5 77.5 32.5c30.667 0 56.834 -10.833 78.501 -32.5s32.5 -47.834 32.5 -78.501zM329 720
c0 14.667 -5 27 -15 37s-22.333 15 -37 15c-14 0 -26 -5 -36 -15s-15 -22.333 -15 -37c0 -14 5 -26 15 -36s22 -15 36 -15c14.667 0 27 5 37 15s15 22 15 36z" />
    <glyph glyph-name="ogonek" unicode="&#x2db;" 
d="M269 0l67.999 0.00195312c-48.667 -30 -73 -58.333 -73 -85c0 -15.333 5.33301 -27.833 16 -37.5s25 -14.5 43 -14.5c11.333 0 26.333 3.66699 45 11v-65c-18 -7.33301 -38.667 -11 -62 -11c-25.333 0 -46.666 3.66699 -63.999 11s-29.5 16.666 -36.5 27.999
s-11.833 21.166 -14.5 29.499s-4 16.5 -4 24.5c0 40.667 27.333 77 82 109z" />
    <glyph glyph-name="tilde" unicode="&#x2dc;" 
d="M141 640l-47.001 65c40.667 26 75 39 103 39c7.33301 0 31 -4.5 71 -13.5s63.333 -13.5 70 -13.5c15.333 0 42 9.33301 80 28l43 -63c-37.333 -30.667 -73.666 -46 -108.999 -46c-8 0 -31.833 4.33301 -71.5 13s-62.834 13 -69.501 13
c-17.333 0 -40.666 -7.33301 -69.999 -22z" />
    <glyph glyph-name="hungarumlaut" unicode="&#x2dd;" 
d="M379 767h119l-139 -135h-100zM216 767h119l-139 -135h-99z" />
    <glyph glyph-name="mu" unicode="&#x3bc;" horiz-adv-x="624" 
d="M74 -185l0.000976562 739h104v-270c0 -66 7.66699 -113.333 23 -142c9.33301 -17.333 23.166 -31.833 41.499 -43.5s39.5 -17.5 63.5 -17.5c93.333 0 140 71.333 140 214v259h104v-554h-104v60h-2c-5.33301 -8.66699 -9.83301 -15.334 -13.5 -20.001
s-11 -12.167 -22 -22.5s-25.167 -18.166 -42.5 -23.499s-37.333 -8 -60 -8c-54 0 -96 17.333 -126 52h-2v-223h-104z" />
    <glyph glyph-name="endash" unicode="&#x2013;" horiz-adv-x="500" 
d="M465 237h-430v104h430v-104z" />
    <glyph glyph-name="emdash" unicode="&#x2014;" horiz-adv-x="1000" 
d="M965 237h-930v104h930v-104z" />
    <glyph glyph-name="quoteleft" unicode="&#x2018;" horiz-adv-x="277" 
d="M86 490v111c0 78 34.667 124.333 104 139v-63c-24.667 -8 -37 -26.667 -37 -56v-9h37v-122h-104z" />
    <glyph glyph-name="quoteright" unicode="&#x2019;" horiz-adv-x="277" 
d="M191 740v-111c0 -78 -34.667 -124.333 -104 -139v63c24.667 8 37 26.667 37 56v9h-37v122h104z" />
    <glyph glyph-name="quotesinglbase" unicode="&#x201a;" horiz-adv-x="277" 
d="M191 122v-111c0 -78 -34.667 -124.333 -104 -139v63c24.667 8 37 26.667 37 56v9h-37v122h104z" />
    <glyph glyph-name="quotedblleft" unicode="&#x201c;" horiz-adv-x="425" 
d="M239 490v111c0 78 34.667 124.333 104 139v-63c-24.667 -8 -37 -26.667 -37 -56v-9h37v-122h-104zM83 490v111c0 78 34.667 124.333 104 139v-63c-24.667 -8 -37 -26.667 -37 -56v-9h37v-122h-104z" />
    <glyph glyph-name="quotedblright" unicode="&#x201d;" horiz-adv-x="425" 
d="M186 740v-111c0 -78 -34.667 -124.333 -104 -139v63c24.667 8 37 26.667 37 56v9h-37v122h104zM342 740v-111c0 -78 -34.667 -124.333 -104 -139v63c24.667 8 37 26.667 37 56v9h-37v122h104z" />
    <glyph glyph-name="quotedblbase" unicode="&#x201e;" horiz-adv-x="425" 
d="M186 122v-111c0 -78 -34.667 -124.333 -104 -139v63c24.667 8 37 26.667 37 56v9h-37v122h104zM342 122v-111c0 -78 -34.667 -124.333 -104 -139v63c24.667 8 37 26.667 37 56v9h-37v122h104z" />
    <glyph glyph-name="dagger" unicode="&#x2020;" horiz-adv-x="573" 
d="M339 740v-193h170v-95h-170v-674h-104v674h-170v95h170v193h104z" />
    <glyph glyph-name="daggerdbl" unicode="&#x2021;" horiz-adv-x="573" 
d="M339 740v-162h170v-95h-170v-358h170v-95h-170v-252h-104v252h-170v95h170v358h-170v95h170v162h104z" />
    <glyph glyph-name="bullet" unicode="&#x2022;" horiz-adv-x="606" 
d="M304 532c41.333 0 76.833 -15.167 106.5 -45.5s44.5 -66.833 44.5 -109.5s-15 -79.167 -45 -109.5s-65.667 -45.5 -107 -45.5c-42 0 -78 15.333 -108 46s-45 67 -45 109s14.833 78.333 44.5 109s66.167 46 109.5 46z" />
    <glyph glyph-name="ellipsis" unicode="&#x2026;" horiz-adv-x="1000" 
d="M219 0h-104v122h104v-122zM552 0h-104v122h104v-122zM885 0h-104v122h104v-122z" />
    <glyph glyph-name="perthousand" unicode="&#x2030;" horiz-adv-x="1228" 
d="M512 166c0 -25.333 8.83301 -47.166 26.5 -65.499s39.167 -27.5 64.5 -27.5s46.833 9.16699 64.5 27.5s26.5 40.166 26.5 65.499s-8.83301 47.166 -26.5 65.499s-39.167 27.5 -64.5 27.5s-46.833 -9.16699 -64.5 -27.5s-26.5 -40.166 -26.5 -65.499zM422 166
c0 49.333 17.833 91.5 53.5 126.5s78.167 52.5 127.5 52.5s91.833 -17.5 127.5 -52.5s53.5 -77.167 53.5 -126.5s-17.833 -91.5 -53.5 -126.5s-78.167 -52.5 -127.5 -52.5s-91.833 17.5 -127.5 52.5s-53.5 77.167 -53.5 126.5zM813 166c0 49.333 17.833 91.5 53.5 126.5
s78.167 52.5 127.5 52.5s91.833 -17.5 127.5 -52.5s53.5 -77.167 53.5 -126.5s-17.833 -91.5 -53.5 -126.5s-78.167 -52.5 -127.5 -52.5s-91.833 17.5 -127.5 52.5s-53.5 77.167 -53.5 126.5zM903 166c0 -25.333 8.83301 -47.166 26.5 -65.499s39.167 -27.5 64.5 -27.5
s46.833 9.16699 64.5 27.5s26.5 40.166 26.5 65.499s-8.83301 47.166 -26.5 65.499s-39.167 27.5 -64.5 27.5s-46.833 -9.16699 -64.5 -27.5s-26.5 -40.166 -26.5 -65.499zM52 572c0 49.333 17.833 91.5 53.5 126.5s78.167 52.5 127.5 52.5s91.833 -17.5 127.5 -52.5
s53.5 -77.167 53.5 -126.5s-17.833 -91.5 -53.5 -126.5s-78.167 -52.5 -127.5 -52.5s-91.833 17.5 -127.5 52.5s-53.5 77.167 -53.5 126.5zM142 572c0 -25.333 8.83301 -47.166 26.5 -65.499s39.167 -27.5 64.5 -27.5s46.833 9.16699 64.5 27.5s26.5 40.166 26.5 65.499
s-8.83301 47.166 -26.5 65.499s-39.167 27.5 -64.5 27.5s-46.833 -9.16699 -64.5 -27.5s-26.5 -40.166 -26.5 -65.499zM660 740l-424 -740h-67l424 740h67z" />
    <glyph glyph-name="guilsinglleft" unicode="&#x2039;" horiz-adv-x="205" 
d="M171 475v-113l-75 -74l75 -74v-112l-137 134v103z" />
    <glyph glyph-name="guilsinglright" unicode="&#x203a;" horiz-adv-x="205" 
d="M34 362v113l137 -136v-103l-137 -134v112l75 74z" />
    <glyph glyph-name="fraction" unicode="&#x2044;" horiz-adv-x="186" 
d="M-25 0h-73l308 740h73z" />
    <glyph glyph-name="trademark" unicode="&#x2122;" horiz-adv-x="990" 
d="M563 700l99 -260l98 260h143v-412h-98v292h-2l-104 -292h-75l-104 292h-2v-292h-98v412h143zM338 700v-79h-120v-333h-98v333h-120v79h338z" />
    <glyph glyph-name="minus" unicode="&#x2212;" horiz-adv-x="600" 
d="M552 201h-504v104h504v-104z" />
    <glyph glyph-name="fi" unicode="&#xfb01;" horiz-adv-x="486" 
d="M419 740v-122h-104v122h104zM271 740v-95.001c-64.667 0 -97 -21.333 -97 -64v-27h245v-554h-104v459h-141v-459h-104v459h-49v95h49v27c0 56 22 99 66 129c21.333 12.667 41 20.834 59 24.501s43.333 5.5 76 5.5z" />
    <glyph glyph-name="fl" unicode="&#xfb02;" horiz-adv-x="486" 
d="M271 740v-95.001c-64.667 0 -97 -21.333 -97 -64v-27h141v186h104v-740h-104v459h-141v-459h-104v459h-49v95h49v27c0 56 22 99 66 129c21.333 12.667 41 20.834 59 24.501s43.333 5.5 76 5.5z" />
    <glyph glyph-name=".null" horiz-adv-x="0" 
 />
    <glyph glyph-name="nonmarkingreturn" horiz-adv-x="333" 
 />
  </font>
</defs>
</svg>
